<svg width="130" height="23" viewBox="0 0 130 23" fill="none" xmlns="http://www.w3.org/2000/svg">
<path d="M14.18 11.14C15.42 11.42 16.4 12.04 17.12 13C17.86 13.94 18.23 15.02 18.23 16.24C18.23 18.04 17.61 19.45 16.37 20.47C15.13 21.49 13.39 22 11.15 22H0.68V0.849999H10.82C12.98 0.849999 14.67 1.33 15.89 2.29C17.13 3.25 17.75 4.6 17.75 6.34C17.75 7.58 17.42 8.62 16.76 9.46C16.12 10.28 15.26 10.84 14.18 11.14ZM6.56 9.25H9.53C11.01 9.25 11.75 8.64 11.75 7.42C11.75 6.16 11.01 5.53 9.53 5.53H6.56V9.25ZM9.98 17.26C11.46 17.26 12.2 16.64 12.2 15.4C12.2 14.76 12 14.27 11.6 13.93C11.22 13.59 10.67 13.42 9.95 13.42H6.56V17.26H9.98ZM31.517 22L27.317 14.2H26.687V22H20.807V0.849999H30.077C31.777 0.849999 33.217 1.15 34.397 1.75C35.577 2.33 36.467 3.14 37.067 4.18C37.667 5.2 37.967 6.35 37.967 7.63C37.967 9.07 37.567 10.34 36.767 11.44C35.987 12.52 34.837 13.29 33.317 13.75L38.087 22H31.517ZM26.687 10.18H29.597C30.397 10.18 30.997 9.99 31.397 9.61C31.797 9.23 31.997 8.68 31.997 7.96C31.997 7.28 31.787 6.75 31.367 6.37C30.967 5.97 30.377 5.77 29.597 5.77H26.687V10.18ZM54.0209 18.55H46.5209L45.3809 22H39.2009L46.9109 0.849999H53.6909L61.3709 22H55.1609L54.0209 18.55ZM52.5509 14.05L50.2709 7.21L48.0209 14.05H52.5509ZM82.8774 22H76.9974L69.1674 10.18V22H63.2874V0.849999H69.1674L76.9974 12.82V0.849999H82.8774V22ZM94.5969 0.849999C96.8169 0.849999 98.7569 1.3 100.417 2.2C102.097 3.08 103.387 4.32 104.287 5.92C105.187 7.52 105.637 9.35 105.637 11.41C105.637 13.45 105.177 15.27 104.257 16.87C103.357 18.47 102.067 19.73 100.387 20.65C98.7269 21.55 96.7969 22 94.5969 22H86.2269V0.849999H94.5969ZM94.1469 16.81C95.8669 16.81 97.2169 16.34 98.1969 15.4C99.1769 14.46 99.6669 13.13 99.6669 11.41C99.6669 9.67 99.1769 8.33 98.1969 7.39C97.2169 6.43 95.8669 5.95 94.1469 5.95H92.1069V16.81H94.1469ZM118.427 22.21C116.447 22.21 114.627 21.75 112.967 20.83C111.307 19.89 109.987 18.6 109.007 16.96C108.047 15.3 107.567 13.43 107.567 11.35C107.567 9.27 108.047 7.41 109.007 5.77C109.987 4.11 111.307 2.82 112.967 1.9C114.627 0.979999 116.447 0.519999 118.427 0.519999C120.427 0.519999 122.247 0.979999 123.887 1.9C125.547 2.82 126.857 4.11 127.817 5.77C128.777 7.41 129.257 9.27 129.257 11.35C129.257 13.43 128.777 15.3 127.817 16.96C126.857 18.6 125.547 19.89 123.887 20.83C122.227 21.75 120.407 22.21 118.427 22.21ZM118.427 16.75C119.927 16.75 121.107 16.26 121.967 15.28C122.847 14.3 123.287 12.99 123.287 11.35C123.287 9.67 122.847 8.35 121.967 7.39C121.107 6.41 119.927 5.92 118.427 5.92C116.907 5.92 115.717 6.41 114.857 7.39C113.997 8.35 113.567 9.67 113.567 11.35C113.567 13.01 113.997 14.33 114.857 15.31C115.717 16.27 116.907 16.75 118.427 16.75Z" fill="url(#paint0_linear_4052_9041)"/>
<defs>
<linearGradient id="paint0_linear_4052_9041" x1="-44.8358" y1="11" x2="-40.9017" y2="40.4259" gradientUnits="userSpaceOnUse">
<stop offset="0.15625" stop-color="#00C2FF" stop-opacity="0.67"/>
<stop offset="0.447917" stop-color="#EAC5A4" stop-opacity="0.38"/>
<stop offset="0.776042" stop-color="#DD4200"/>
</linearGradient>
</defs>
</svg>
