<svg width="126" height="22" viewBox="0 0 126 22" fill="none" xmlns="http://www.w3.org/2000/svg">
<path d="M13.168 10.864C14.3253 11.1253 15.24 11.704 15.912 12.6C16.6027 13.4773 16.948 14.4853 16.948 15.624C16.948 17.304 16.3693 18.62 15.212 19.572C14.0547 20.524 12.4307 21 10.34 21H0.568V1.26H10.032C12.048 1.26 13.6253 1.708 14.764 2.604C15.9213 3.5 16.5 4.76 16.5 6.384C16.5 7.54133 16.192 8.512 15.576 9.296C14.9787 10.0613 14.176 10.584 13.168 10.864ZM6.056 9.1H8.828C10.2093 9.1 10.9 8.53067 10.9 7.392C10.9 6.216 10.2093 5.628 8.828 5.628H6.056V9.1ZM9.248 16.576C10.6293 16.576 11.32 15.9973 11.32 14.84C11.32 14.2427 11.1333 13.7853 10.76 13.468C10.4053 13.1507 9.892 12.992 9.22 12.992H6.056V16.576H9.248ZM30.2492 21L26.3292 13.72H25.7412V21H20.2532V1.26H28.9052C30.4918 1.26 31.8358 1.54 32.9372 2.1C34.0385 2.64133 34.8692 3.39733 35.4292 4.368C35.9892 5.32 36.2692 6.39333 36.2692 7.588C36.2692 8.932 35.8958 10.1173 35.1492 11.144C34.4212 12.152 33.3478 12.8707 31.9292 13.3L36.3812 21H30.2492ZM25.7412 9.968H28.4572C29.2038 9.968 29.7638 9.79067 30.1372 9.436C30.5105 9.08133 30.6972 8.568 30.6972 7.896C30.6972 7.26133 30.5012 6.76667 30.1092 6.412C29.7358 6.03867 29.1852 5.852 28.4572 5.852H25.7412V9.968ZM52.1529 17.78H45.1529L44.0889 21H38.3209L45.5169 1.26H51.8449L59.0129 21H53.2169L52.1529 17.78ZM50.7809 13.58L48.6529 7.196L46.5529 13.58H50.7809ZM79.9856 21H74.4976L67.1896 9.968V21H61.7016V1.26H67.1896L74.4976 12.432V1.26H79.9856V21ZM91.8237 1.26C93.8957 1.26 95.7064 1.68 97.2557 2.52C98.8237 3.34133 100.028 4.49867 100.868 5.992C101.708 7.48533 102.128 9.19333 102.128 11.116C102.128 13.02 101.698 14.7187 100.84 16.212C99.9997 17.7053 98.7957 18.8813 97.2277 19.74C95.6784 20.58 93.8771 21 91.8237 21H84.0117V1.26H91.8237ZM91.4037 16.156C93.0091 16.156 94.2691 15.7173 95.1837 14.84C96.0984 13.9627 96.5557 12.7213 96.5557 11.116C96.5557 9.492 96.0984 8.24133 95.1837 7.364C94.2691 6.468 93.0091 6.02 91.4037 6.02H89.4997V16.156H91.4037ZM114.966 21.196C113.118 21.196 111.419 20.7667 109.87 19.908C108.32 19.0307 107.088 17.8267 106.174 16.296C105.278 14.7467 104.83 13.0013 104.83 11.06C104.83 9.11867 105.278 7.38267 106.174 5.852C107.088 4.30267 108.32 3.09867 109.87 2.24C111.419 1.38133 113.118 0.951999 114.966 0.951999C116.832 0.951999 118.531 1.38133 120.062 2.24C121.611 3.09867 122.834 4.30267 123.73 5.852C124.626 7.38267 125.074 9.11867 125.074 11.06C125.074 13.0013 124.626 14.7467 123.73 16.296C122.834 17.8267 121.611 19.0307 120.062 19.908C118.512 20.7667 116.814 21.196 114.966 21.196ZM114.966 16.1C116.366 16.1 117.467 15.6427 118.27 14.728C119.091 13.8133 119.502 12.5907 119.502 11.06C119.502 9.492 119.091 8.26 118.27 7.364C117.467 6.44933 116.366 5.992 114.966 5.992C113.547 5.992 112.436 6.44933 111.634 7.364C110.831 8.26 110.43 9.492 110.43 11.06C110.43 12.6093 110.831 13.8413 111.634 14.756C112.436 15.652 113.547 16.1 114.966 16.1Z" fill="url(#paint0_linear_4052_9041)"/>
<defs>
<linearGradient id="paint0_linear_4052_9041" x1="-43.1754" y1="11" x2="-39.0921" y2="40.3845" gradientUnits="userSpaceOnUse">
<stop offset="0.15625" stop-color="#00C2FF" stop-opacity="0.67"/>
<stop offset="0.447917" stop-color="#EAC5A4" stop-opacity="0.38"/>
<stop offset="0.776042" stop-color="#DD4200"/>
</linearGradient>
</defs>
</svg>
