<svg width="134" height="23" viewBox="0 0 134 23" fill="none" xmlns="http://www.w3.org/2000/svg">
<path d="M14.18 11.14C15.42 11.42 16.4 12.04 17.12 13C17.86 13.94 18.23 15.02 18.23 16.24C18.23 18.04 17.61 19.45 16.37 20.47C15.13 21.49 13.39 22 11.15 22H0.68V0.849999H10.82C12.98 0.849999 14.67 1.33 15.89 2.29C17.13 3.25 17.75 4.6 17.75 6.34C17.75 7.58 17.42 8.62 16.76 9.46C16.12 10.28 15.26 10.84 14.18 11.14ZM6.56 9.25H9.53C11.01 9.25 11.75 8.64 11.75 7.42C11.75 6.16 11.01 5.53 9.53 5.53H6.56V9.25ZM9.98 17.26C11.46 17.26 12.2 16.64 12.2 15.4C12.2 14.76 12 14.27 11.6 13.93C11.22 13.59 10.67 13.42 9.95 13.42H6.56V17.26H9.98ZM32.417 22L28.217 14.2H27.587V22H21.707V0.849999H30.977C32.677 0.849999 34.117 1.15 35.297 1.75C36.477 2.33 37.367 3.14 37.967 4.18C38.567 5.2 38.867 6.35 38.867 7.63C38.867 9.07 38.467 10.34 37.667 11.44C36.887 12.52 35.737 13.29 34.217 13.75L38.987 22H32.417ZM27.587 10.18H30.497C31.297 10.18 31.897 9.99 32.297 9.61C32.697 9.23 32.897 8.68 32.897 7.96C32.897 7.28 32.687 6.75 32.267 6.37C31.867 5.97 31.277 5.77 30.497 5.77H27.587V10.18ZM55.8209 18.55H48.3209L47.1809 22H41.0009L48.7109 0.849999H55.4909L63.1709 22H56.9609L55.8209 18.55ZM54.3509 14.05L52.0709 7.21L49.8209 14.05H54.3509ZM85.5774 22H79.6974L71.8674 10.18V22H65.9874V0.849999H71.8674L79.6974 12.82V0.849999H85.5774V22ZM98.1969 0.849999C100.417 0.849999 102.357 1.3 104.017 2.2C105.697 3.08 106.987 4.32 107.887 5.92C108.787 7.52 109.237 9.35 109.237 11.41C109.237 13.45 108.777 15.27 107.857 16.87C106.957 18.47 105.667 19.73 103.987 20.65C102.327 21.55 100.397 22 98.1969 22H89.8269V0.849999H98.1969ZM97.7469 16.81C99.4669 16.81 100.817 16.34 101.797 15.4C102.777 14.46 103.267 13.13 103.267 11.41C103.267 9.67 102.777 8.33 101.797 7.39C100.817 6.43 99.4669 5.95 97.7469 5.95H95.7069V16.81H97.7469ZM122.927 22.21C120.947 22.21 119.127 21.75 117.467 20.83C115.807 19.89 114.487 18.6 113.507 16.96C112.547 15.3 112.067 13.43 112.067 11.35C112.067 9.27 112.547 7.41 113.507 5.77C114.487 4.11 115.807 2.82 117.467 1.9C119.127 0.979999 120.947 0.519999 122.927 0.519999C124.927 0.519999 126.747 0.979999 128.387 1.9C130.047 2.82 131.357 4.11 132.317 5.77C133.277 7.41 133.757 9.27 133.757 11.35C133.757 13.43 133.277 15.3 132.317 16.96C131.357 18.6 130.047 19.89 128.387 20.83C126.727 21.75 124.907 22.21 122.927 22.21ZM122.927 16.75C124.427 16.75 125.607 16.26 126.467 15.28C127.347 14.3 127.787 12.99 127.787 11.35C127.787 9.67 127.347 8.35 126.467 7.39C125.607 6.41 124.427 5.92 122.927 5.92C121.407 5.92 120.217 6.41 119.357 7.39C118.497 8.35 118.067 9.67 118.067 11.35C118.067 13.01 118.497 14.33 119.357 15.31C120.217 16.27 121.407 16.75 122.927 16.75Z" fill="url(#paint0_linear_4052_9041)"/>
<defs>
<linearGradient id="paint0_linear_4052_9041" x1="-46.1642" y1="11" x2="-42.3419" y2="40.4559" gradientUnits="userSpaceOnUse">
<stop offset="0.15625" stop-color="#00C2FF" stop-opacity="0.67"/>
<stop offset="0.447917" stop-color="#EAC5A4" stop-opacity="0.38"/>
<stop offset="0.776042" stop-color="#DD4200"/>
</linearGradient>
</defs>
</svg>
