<svg width="50" height="50" viewBox="0 0 50 50" fill="none" xmlns="http://www.w3.org/2000/svg">
<rect width="50" height="50" rx="8" fill="#02B290"/>
<path fill-rule="evenodd" clip-rule="evenodd" d="M14.5 13H35.5C35.8978 13 36.2794 13.158 36.5607 13.4393C36.842 13.7206 37 14.1022 37 14.5V35.5C37 35.8978 36.842 36.2794 36.5607 36.5607C36.2794 36.842 35.8978 37 35.5 37H14.5C14.1022 37 13.7206 36.842 13.4393 36.5607C13.158 36.2794 13 35.8978 13 35.5V14.5C13 14.1022 13.158 13.7206 13.4393 13.4393C13.7206 13.158 14.1022 13 14.5 13V13ZM10 14.5C10 13.3065 10.4741 12.1619 11.318 11.318C12.1619 10.4741 13.3065 10 14.5 10H35.5C36.6935 10 37.8381 10.4741 38.682 11.318C39.5259 12.1619 40 13.3065 40 14.5V35.5C40 36.6935 39.5259 37.8381 38.682 38.682C37.8381 39.5259 36.6935 40 35.5 40H14.5C13.3065 40 12.1619 39.5259 11.318 38.682C10.4741 37.8381 10 36.6935 10 35.5V14.5ZM25 25C20.8585 25 17.5 20.971 17.5 16H20.5C20.5 19.849 23.0035 22 25 22C26.9965 22 29.5 19.849 29.5 16H32.5C32.5 20.971 29.1415 25 25 25Z" fill="white"/>
</svg>
