<svg width="50" height="50" viewBox="0 0 50 50" fill="none" xmlns="http://www.w3.org/2000/svg">
<rect width="50" height="50" rx="25" fill="url(#paint0_linear_3805_9113)"/>
<path d="M42 34.7625C41.4906 34.9551 40.9283 34.9547 40.4192 34.7613C39.9101 34.5678 39.4894 34.1948 39.2365 33.7125L34.2052 26.7548L33.4761 25.782L27.6384 33.7212C27.4006 34.1833 27.0027 34.543 26.5191 34.733C26.0354 34.923 25.4991 34.9304 25.0104 34.7537L32.5325 24.662L25.5354 15.546C26.0386 15.3647 26.5888 15.3623 27.0935 15.5392C27.5981 15.7161 28.0265 16.0615 28.3063 16.5173L33.5213 23.561L38.7654 16.5464C39.005 16.0926 39.403 15.7426 39.8837 15.563C40.3645 15.3834 40.8945 15.3867 41.3729 15.5723L38.6575 19.1758L34.9796 23.9635C34.8775 24.0546 34.7957 24.1663 34.7398 24.2912C34.6838 24.4161 34.6549 24.5514 34.6549 24.6883C34.6549 24.8252 34.6838 24.9605 34.7398 25.0854C34.7957 25.2103 34.8775 25.322 34.9796 25.4131L41.9854 34.7639L42 34.7625ZM7.00293 24.5366L7.61543 21.5106C9.29835 15.527 16.1584 13.0377 20.8775 16.7418C23.6411 18.9133 24.3309 21.9875 24.1952 25.4525H8.62752C8.37523 31.6402 12.8406 35.3764 18.55 33.4675C19.4756 33.1343 20.304 32.5768 20.9612 31.8448C21.6183 31.1128 22.0836 30.2293 22.3154 29.2733C22.6173 28.302 23.1146 28.1358 24.0275 28.4158C23.8754 29.6005 23.4566 30.7353 22.8026 31.7348C22.1487 32.7344 21.2765 33.5726 20.2519 34.1864C18.5594 35.1122 16.6175 35.4792 14.7038 35.2348C12.7902 34.9904 11.0028 34.1472 9.59731 32.8258C8.20756 31.2616 7.36763 29.2857 7.20564 27.1995C7.20564 26.8568 7.08898 26.536 7.01023 26.2283C7.00313 25.6649 6.99972 25.1015 7.00002 24.5381L7.00293 24.5366ZM8.64648 24.1195H22.7252C22.6377 19.6337 19.8071 16.4516 16.0315 16.4225C11.8286 16.3641 8.82148 19.4762 8.63627 24.0991L8.64648 24.1195Z" fill="white" fill-opacity="0.69"/>
<defs>
<linearGradient id="paint0_linear_3805_9113" x1="25" y1="0" x2="25" y2="50" gradientUnits="userSpaceOnUse">
<stop stop-color="#6CC04A"/>
<stop offset="1" stop-color="#7C7C7F"/>
</linearGradient>
</defs>
</svg>
