<svg width="98" height="60" viewBox="0 0 98 60" fill="none" xmlns="http://www.w3.org/2000/svg">
<path d="M48.3678 59.827C48.0367 59.827 47.7275 59.7387 47.4403 59.5841L44.5031 57.8395C44.0614 57.5965 44.2823 57.5082 44.4149 57.464C45.011 57.2653 45.1215 57.221 45.7398 56.8679C45.8061 56.8235 45.8946 56.8457 45.9607 56.8898L48.2134 58.237C48.3017 58.2811 48.4121 58.2811 48.4782 58.237L57.29 53.1354C57.3783 53.0913 57.4226 53.0028 57.4226 52.8926V42.7117C57.4226 42.601 57.3783 42.513 57.29 42.4686L48.4782 37.3893C48.39 37.3449 48.2795 37.3449 48.2134 37.3893L39.4016 42.4686C39.3133 42.5128 39.269 42.6232 39.269 42.7115V52.8924C39.269 52.9809 39.3133 53.0911 39.4016 53.1354L41.8089 54.5267C43.1119 55.1892 43.9289 54.4163 43.9289 53.6433V43.5949C43.9289 43.4624 44.0394 43.3298 44.194 43.3298H45.3202C45.4528 43.3298 45.5853 43.4403 45.5853 43.5949V53.6433C45.5853 55.3879 44.6356 56.4039 42.9793 56.4039C42.4714 56.4039 42.0739 56.4039 40.9475 55.8517L38.6287 54.5267C38.0545 54.1956 37.7012 53.577 37.7012 52.9146V42.7337C37.7012 42.0712 38.0545 41.4526 38.6287 41.1215L47.4403 36.02C47.9925 35.7108 48.7435 35.7108 49.2955 36.02L58.1071 41.1215C58.6813 41.4526 59.0348 42.0712 59.0348 42.7337V52.9146C59.0348 53.577 58.6813 54.1956 58.1071 54.5267L49.2955 59.6282C49.0083 59.7609 48.6772 59.827 48.368 59.827H48.3678ZM51.0842 52.8263C47.2196 52.8263 46.4245 51.0595 46.4245 49.5578C46.4245 49.4252 46.5349 49.2928 46.6895 49.2928H47.8379C47.9703 49.2928 48.0808 49.381 48.0808 49.5137C48.2575 50.684 48.7654 51.2582 51.1064 51.2582C52.9614 51.2582 53.7567 50.8386 53.7567 49.8448C53.7567 49.2706 53.5356 48.8512 50.6426 48.564C48.2354 48.3209 46.7337 47.791 46.7337 45.8697C46.7337 44.0808 48.2356 43.0207 50.7531 43.0207C53.5798 43.0207 54.9712 43.9925 55.148 46.1124C55.148 46.1789 55.1258 46.245 55.0817 46.3113C55.0374 46.3554 54.9712 46.3996 54.9049 46.3996H53.7565C53.6461 46.3996 53.5356 46.3113 53.5137 46.2009C53.2486 44.9863 52.564 44.5887 50.7531 44.5887C48.7213 44.5887 48.4782 45.2955 48.4782 45.8254C48.4782 46.4659 48.7654 46.6646 51.5038 47.0179C54.2203 47.3714 55.5013 47.8793 55.5013 49.7785C55.4791 51.722 53.8891 52.8263 51.0842 52.8263Z" fill="#539E43"/>
<path d="M21.0272 20.0088C21.0272 19.6114 20.8063 19.2357 20.453 19.037L11.0892 13.6484C10.9344 13.56 10.7578 13.5158 10.5813 13.4937H10.4928C10.3162 13.4937 10.1395 13.56 9.9849 13.6484L0.621079 19.037C0.267576 19.2357 0.046875 19.6112 0.046875 20.0088L0.0690406 34.4961C0.0690406 34.6949 0.179486 34.8936 0.356047 34.9821C0.532799 35.0925 0.753499 35.0925 0.908276 34.9821L6.47356 31.8019C6.82687 31.6031 7.04777 31.2277 7.04777 30.8302V24.0502C7.04777 23.6528 7.26847 23.2773 7.62197 23.0786L9.9849 21.7093C10.1617 21.5988 10.3604 21.5545 10.5591 21.5545C10.7578 21.5545 10.9566 21.5988 11.1113 21.7093L13.4743 23.0786C13.8278 23.2773 14.0485 23.6526 14.0485 24.0502V30.8302C14.0485 31.2277 14.2694 31.6031 14.6227 31.8019L20.188 34.9821C20.3647 35.0925 20.5854 35.0925 20.7622 34.9821C20.9389 34.8936 21.0494 34.6949 21.0494 34.4961L21.0272 20.0088Z" fill="#7C7C7F"/>
<path d="M66.0352 0.0663535C65.8586 -0.0221178 65.6377 -0.0221178 65.4829 0.0663535C65.3064 0.176799 65.1959 0.35336 65.1959 0.552086V14.9072C65.1959 15.0396 65.1298 15.172 64.9972 15.2605C64.8648 15.3266 64.7322 15.3266 64.5997 15.2605L62.2588 13.9134C62.0872 13.8156 61.8931 13.7643 61.6956 13.7643C61.4981 13.7643 61.304 13.8156 61.1324 13.9134L51.7685 19.3241C51.4152 19.5228 51.1943 19.8983 51.1943 20.2957V31.095C51.1943 31.4924 51.4152 31.8681 51.7685 32.0668L61.1324 37.4775C61.304 37.5752 61.4981 37.6266 61.6956 37.6266C61.8931 37.6266 62.0872 37.5752 62.2588 37.4775L71.6226 32.0668C71.9759 31.8681 72.1968 31.4926 72.1968 31.095V4.17406C72.1968 3.75444 71.9759 3.37916 71.6226 3.18024L66.0354 0.0663535H66.0352ZM65.174 27.5395C65.174 27.6499 65.1298 27.7382 65.0413 27.7823L61.8392 29.6374C61.7945 29.6592 61.7453 29.6705 61.6956 29.6705C61.6458 29.6705 61.5967 29.6592 61.552 29.6374L58.3498 27.7823C58.2613 27.7382 58.2172 27.6278 58.2172 27.5395V23.8292C58.2172 23.7188 58.2613 23.6305 58.3498 23.5864L61.552 21.7311C61.5967 21.7093 61.6458 21.698 61.6956 21.698C61.7453 21.698 61.7945 21.7093 61.8392 21.7311L65.0413 23.5864C65.1298 23.6303 65.174 23.7409 65.174 23.8292V27.5395Z" fill="#7C7C7F"/>
<path d="M97.1967 23.7409C97.5502 23.5422 97.749 23.1667 97.749 22.769V20.1411C97.749 19.7436 97.5281 19.3681 97.1967 19.1694L87.8992 13.7809C87.7276 13.6832 87.5336 13.6318 87.3361 13.6318C87.1386 13.6318 86.9446 13.6832 86.773 13.7809L77.4092 19.1914C77.0557 19.3901 76.835 19.7656 76.835 20.1632V30.9625C76.835 31.3599 77.0557 31.7354 77.4092 31.9341L86.7067 37.2344C87.0602 37.4331 87.4796 37.4331 87.8109 37.2344L93.4423 34.0987C93.6191 34.0102 93.7295 33.8115 93.7295 33.6128C93.7295 33.4141 93.6191 33.2153 93.4423 33.1269L84.0344 27.7162C83.8578 27.6059 83.7474 27.4292 83.7474 27.2304V23.8515C83.7474 23.6528 83.8578 23.4541 84.0344 23.3656L86.9717 21.6871C87.0577 21.633 87.1572 21.6043 87.2588 21.6043C87.3604 21.6043 87.4599 21.633 87.5459 21.6871L90.483 23.3656C90.6598 23.476 90.7702 23.6526 90.7702 23.8515V26.5017C90.7702 26.7004 90.8807 26.8991 91.0573 26.9874C91.234 27.0978 91.4547 27.0978 91.6315 26.9874L97.1967 23.7409V23.7409Z" fill="#7C7C7F"/>
<path d="M87.1923 23.2333C87.2251 23.2117 87.2635 23.2002 87.3027 23.2002C87.3419 23.2002 87.3803 23.2117 87.413 23.2333L89.2019 24.2712C89.2683 24.3152 89.3124 24.3815 89.3124 24.47V26.5459C89.3124 26.6342 89.2683 26.7005 89.2019 26.7446L87.413 27.7826C87.3803 27.8041 87.3419 27.8156 87.3027 27.8156C87.2635 27.8156 87.2251 27.8041 87.1923 27.7826L85.4034 26.7446C85.3371 26.7005 85.293 26.6342 85.293 26.5459V24.47C85.293 24.3815 85.3371 24.3152 85.4034 24.2712L87.1923 23.2333V23.2333Z" fill="#539E43"/>
<mask id="mask0_3805_9075" style="mask-type:alpha" maskUnits="userSpaceOnUse" x="25" y="13" width="22" height="25">
<path d="M36.685 13.8253C36.5134 13.7276 36.3193 13.6763 36.1219 13.6763C35.9244 13.6763 35.7303 13.7276 35.5587 13.8253L26.2612 19.1915C25.9077 19.3902 25.709 19.7657 25.709 20.1632V30.9184C25.709 31.3159 25.9299 31.6914 26.2612 31.8901L35.5587 37.2567C35.7303 37.3543 35.9244 37.4057 36.1219 37.4057C36.3193 37.4057 36.5134 37.3543 36.685 37.2567L45.9827 31.8901C46.336 31.6914 46.5349 31.3159 46.5349 30.9184V20.1633C46.5349 19.7659 46.3138 19.3904 45.9827 19.1917L36.685 13.8253Z" fill="white"/>
</mask>
<g mask="url(#mask0_3805_9075)">
<path d="M36.685 13.8253C36.5134 13.7276 36.3193 13.6763 36.1219 13.6763C35.9244 13.6763 35.7303 13.7276 35.5587 13.8253L26.2612 19.1915C25.9077 19.3902 25.709 19.7657 25.709 20.1632V30.9184C25.709 31.3159 25.9299 31.6914 26.2612 31.8901L35.5587 37.2567C35.7303 37.3543 35.9244 37.4057 36.1219 37.4057C36.3193 37.4057 36.5134 37.3543 36.685 37.2567L45.9827 31.8901C46.336 31.6914 46.5349 31.3159 46.5349 30.9184V20.1633C46.5349 19.7659 46.3138 19.3904 45.9827 19.1917L36.685 13.8253Z" fill="url(#paint0_linear_3805_9075)"/>
<path d="M46.0047 19.1921L36.663 13.8258C36.5712 13.7794 36.475 13.7424 36.3758 13.7153L25.9077 31.6481C25.9944 31.7539 26.0992 31.8437 26.2171 31.9131L35.5587 37.2797C35.8238 37.4342 36.1329 37.4784 36.4199 37.3899L46.2477 19.4132C46.1814 19.3249 46.0929 19.2585 46.0047 19.1923V19.1921Z" fill="url(#paint1_linear_3805_9075)"/>
<path fill-rule="evenodd" clip-rule="evenodd" d="M46.0265 31.8905C46.2916 31.7359 46.4903 31.4709 46.5788 31.1839L36.3312 13.693C36.0662 13.6488 35.779 13.6708 35.5363 13.8254L26.2607 19.17L36.2649 37.4117C36.4104 37.3879 36.5517 37.3433 36.6845 37.2793L46.0263 31.8907L46.0265 31.8905Z" fill="url(#paint2_linear_3805_9075)"/>
<path fill-rule="evenodd" clip-rule="evenodd" d="M46.0269 31.8904L36.7072 37.257C36.5756 37.3241 36.4338 37.3688 36.2876 37.3894L36.4643 37.7207L46.7998 31.736V31.6034L46.5348 31.1616C46.4907 31.4708 46.2919 31.7358 46.0269 31.8904V31.8904Z" fill="url(#paint3_linear_3805_9075)"/>
<path fill-rule="evenodd" clip-rule="evenodd" d="M46.0269 31.8904L36.7072 37.257C36.5756 37.3241 36.4338 37.3688 36.2876 37.3894L36.4643 37.7207L46.7998 31.736V31.6034L46.5348 31.1616C46.4907 31.4708 46.2919 31.7358 46.0269 31.8904V31.8904Z" fill="url(#paint4_linear_3805_9075)"/>
</g>
<defs>
<linearGradient id="paint0_linear_3805_9075" x1="39.9098" y1="17.8258" x2="29.7188" y2="33.8389" gradientUnits="userSpaceOnUse">
<stop stop-color="#41873F"/>
<stop offset="0.3288" stop-color="#418B3D"/>
<stop offset="0.6352" stop-color="#419637"/>
<stop offset="0.9319" stop-color="#3FA92D"/>
<stop offset="1" stop-color="#3FAE2A"/>
</linearGradient>
<linearGradient id="paint1_linear_3805_9075" x1="34.7103" y1="26.8013" x2="60.2331" y2="12.9346" gradientUnits="userSpaceOnUse">
<stop offset="0.1376" stop-color="#41873F"/>
<stop offset="0.4032" stop-color="#54A044"/>
<stop offset="0.7136" stop-color="#66B848"/>
<stop offset="0.9081" stop-color="#6CC04A"/>
</linearGradient>
<linearGradient id="paint2_linear_3805_9075" x1="25.369" y1="25.5416" x2="46.8833" y2="25.5416" gradientUnits="userSpaceOnUse">
<stop offset="0.09192" stop-color="#6CC04A"/>
<stop offset="0.2864" stop-color="#66B848"/>
<stop offset="0.5968" stop-color="#54A044"/>
<stop offset="0.8624" stop-color="#41873F"/>
</linearGradient>
<linearGradient id="paint3_linear_3805_9075" x1="25.3695" y1="34.4592" x2="46.8836" y2="34.4592" gradientUnits="userSpaceOnUse">
<stop offset="0.09192" stop-color="#6CC04A"/>
<stop offset="0.2864" stop-color="#66B848"/>
<stop offset="0.5968" stop-color="#54A044"/>
<stop offset="0.8624" stop-color="#41873F"/>
</linearGradient>
<linearGradient id="paint4_linear_3805_9075" x1="50.0179" y1="17.3174" x2="44.5676" y2="45.8771" gradientUnits="userSpaceOnUse">
<stop stop-color="#41873F"/>
<stop offset="0.3288" stop-color="#418B3D"/>
<stop offset="0.6352" stop-color="#419637"/>
<stop offset="0.9319" stop-color="#3FA92D"/>
<stop offset="1" stop-color="#3FAE2A"/>
</linearGradient>
</defs>
</svg>
