<svg width="59" height="60" viewBox="0 0 59 60" fill="none" xmlns="http://www.w3.org/2000/svg">
<g clip-path="url(#clip0_3805_9097)">
<path d="M57.9606 35.9288C57.6117 34.8722 56.6979 34.1363 55.516 33.9597C54.9588 33.8765 54.3206 33.912 53.5654 34.0677C52.249 34.3393 51.2724 34.4427 50.5597 34.4627C53.2499 29.9206 55.4374 24.7411 56.6967 19.8654C58.7331 11.9815 57.6449 8.38995 56.3733 6.7654C53.0081 2.4654 48.0983 0.155401 42.1751 0.0847191C39.0154 0.0460827 36.2415 0.669946 34.7944 1.11858C33.4472 0.880855 31.9985 0.748128 30.4785 0.723583C27.6292 0.678128 25.1117 1.29926 22.9606 2.57586C21.7697 2.17313 19.8583 1.6054 17.651 1.24313C12.4597 0.390855 8.27558 1.05495 5.21513 3.21699C1.50922 5.83472 -0.208734 10.3829 0.108993 16.7352C0.209902 18.752 1.33808 24.8884 3.11445 30.7079C4.13536 34.0529 5.22399 36.8306 6.35013 38.9647C7.94718 41.9909 9.65604 43.7729 11.5744 44.4129C12.6497 44.7711 14.6033 45.022 16.6581 43.3106C16.9185 43.6261 17.266 43.9395 17.7272 44.2306C18.3129 44.5999 19.029 44.9018 19.7442 45.0806C22.3217 45.7249 24.736 45.5638 26.7958 44.6606C26.8085 45.027 26.8183 45.377 26.8265 45.6793C26.8401 46.1695 26.8538 46.6502 26.8717 47.0997C26.9938 50.1393 27.2006 52.5027 27.8133 54.1563C27.8469 54.2472 27.8922 54.3859 27.9399 54.5329C28.2456 55.4688 28.7567 57.0356 30.0572 58.2627C31.4038 59.5338 33.0326 59.9236 34.5244 59.9236C35.2726 59.9236 35.9865 59.8254 36.6126 59.6913C38.8444 59.2129 41.3792 58.4843 43.2129 55.8734C44.9465 53.4052 45.7892 49.6877 45.9417 43.8302C45.9615 43.6645 45.9797 43.5063 45.9972 43.3556L46.0335 43.0461L46.4419 43.082L46.5472 43.089C48.8204 43.1927 51.5999 42.7106 53.3069 41.9177C54.6558 41.2918 58.9783 39.0097 57.9606 35.9288" fill="#7C7C7F"/>
<path d="M54.0738 36.5278C47.3147 37.9221 46.8499 35.6337 46.8499 35.6337C53.9863 25.0444 56.9697 11.6028 54.3954 8.31303C47.3717 -0.660837 35.2138 3.58325 35.0108 3.69325L34.9456 3.70507C33.6101 3.4278 32.1158 3.2628 30.436 3.2353C27.3779 3.1853 25.0579 4.03712 23.2974 5.37212C23.2974 5.37212 1.60877 -3.56288 2.61763 16.6094C2.83218 20.9008 8.76854 49.0805 15.849 40.5689C18.437 37.4564 20.9376 34.8248 20.9376 34.8248C22.1795 35.6498 23.6663 36.0708 25.2249 35.9196L25.346 35.8169C25.3083 36.2033 25.3256 36.5812 25.3945 37.0287C23.5704 39.0667 24.1065 39.4244 20.4601 40.1751C16.7704 40.9355 18.9379 42.2892 20.3531 42.6433C22.0688 43.0721 26.0379 43.6798 28.7197 39.9255L28.6129 40.3539C29.3274 40.9264 29.8292 44.0773 29.7451 46.9339C29.661 49.7903 29.6049 51.7514 30.1679 53.2833C30.7313 54.8151 31.2924 58.2617 36.086 57.2346C40.0913 56.3762 42.167 54.1519 42.4558 50.4414C42.6606 47.8037 43.1245 48.1937 43.1535 45.8353L43.5256 44.7189C43.9545 41.1433 43.5938 39.9896 46.0613 40.5262L46.6613 40.5789C48.4772 40.6614 50.8545 40.2867 52.2497 39.6383C55.2538 38.2442 57.0356 35.9162 54.0733 36.5278H54.0738" fill="#336791"/>
<path d="M24.5667 18.5282C23.9577 18.4434 23.4061 18.5218 23.127 18.7332C22.9702 18.8521 22.9215 18.9898 22.9083 19.0846C22.8733 19.3357 23.0492 19.6134 23.1574 19.7566C23.4633 20.1621 23.9102 20.4407 24.3524 20.5021C24.4165 20.5112 24.4804 20.5153 24.5438 20.5153C25.2813 20.5153 25.952 19.9409 26.0111 19.5171C26.0849 18.9862 25.3142 18.6323 24.5667 18.5284" fill="white"/>
<path d="M44.7452 18.5454C44.687 18.1293 43.9465 18.0107 43.2438 18.1084C42.542 18.2061 41.8615 18.5229 41.9184 18.94C41.9638 19.2643 42.5495 19.8179 43.2427 19.8179C43.3013 19.8179 43.3604 19.8141 43.42 19.8057C43.8827 19.7416 44.2222 19.4477 44.3836 19.2784C44.629 19.0202 44.7713 18.7325 44.7452 18.5454" fill="white"/>
<path d="M56.3225 36.3693C56.0648 35.59 55.2352 35.3393 53.857 35.6238C49.765 36.4684 48.2995 35.8834 47.8184 35.5291C50.9991 30.6836 53.6157 24.8263 55.0273 19.3616C55.6959 16.7729 56.0652 14.3688 56.0954 12.4093C56.1288 10.2586 55.7625 8.67815 55.007 7.7127C51.9611 3.82065 47.4907 1.73292 42.0793 1.67565C38.3591 1.63383 35.2159 2.58588 34.6066 2.85361C33.3234 2.53452 31.9245 2.33861 30.4016 2.31361C27.6088 2.26838 25.1948 2.93702 23.1961 4.29997C22.3279 3.97679 20.0843 3.20656 17.3404 2.76452C12.5968 2.00088 8.82726 2.57952 6.13726 4.4852C2.92748 6.75929 1.44567 10.8243 1.73271 16.567C1.8293 18.4991 2.93021 24.4427 4.66748 30.1347C6.9543 37.6266 9.44021 41.8677 12.0557 42.7402C12.3618 42.8422 12.7148 42.9136 13.1041 42.9136C14.0582 42.9136 15.2279 42.4836 16.445 41.0204C17.9294 39.2396 19.465 37.5021 21.0498 35.81C22.0779 36.3618 23.2075 36.67 24.3627 36.7009C24.365 36.7311 24.3679 36.7613 24.3707 36.7913C24.1718 37.0285 23.9771 37.269 23.7866 37.5129C22.9861 38.5291 22.8195 38.7407 20.2429 39.2711C19.51 39.4225 17.5634 39.8236 17.5348 41.1882C17.5038 42.6791 19.8359 43.3052 20.1016 43.3716C21.0275 43.6034 21.9195 43.7177 22.7702 43.7177C24.8391 43.7177 26.6598 43.0377 28.1148 41.722C28.07 47.037 28.2916 52.2743 28.9298 53.87C29.4525 55.1763 30.7293 58.3688 34.7625 58.3686C35.3543 58.3686 36.0057 58.2997 36.7223 58.1461C40.9316 57.2438 42.7595 55.3834 43.4666 51.2818C43.845 49.0897 44.4943 43.8554 44.7998 41.0477C45.4443 41.2488 46.2741 41.3409 47.1711 41.3407C49.042 41.3407 51.2009 40.9432 52.5548 40.3147C54.0757 39.6084 56.8202 37.8752 56.3225 36.3693V36.3693ZM46.2984 17.3966C46.2845 18.2254 46.1704 18.9779 46.0495 19.7634C45.9193 20.6082 45.7848 21.4816 45.7509 22.5418C45.7175 23.5736 45.8464 24.6463 45.9709 25.6838C46.2227 27.7793 46.4811 29.9366 45.4809 32.0652C45.3147 31.7708 45.1667 31.4665 45.0377 31.1541C44.9134 30.8527 44.6434 30.3686 44.2695 29.6986C42.8152 27.0904 39.4095 20.9827 41.1529 18.4904C41.6723 17.7486 42.9902 16.9859 46.2984 17.3966V17.3966ZM42.2884 3.35406C47.137 3.46111 50.9725 5.27497 53.6879 8.74497C55.7707 11.4066 53.4773 23.5172 46.8379 33.9652C46.7712 33.8803 46.7041 33.7957 46.6366 33.7113L46.5525 33.6063C48.2682 30.7729 47.9327 27.9695 47.6341 25.4841C47.5113 24.4641 47.3954 23.5007 47.425 22.5957C47.4554 21.6366 47.5823 20.8138 47.705 20.0184C47.8557 19.0382 48.0091 18.0238 47.9668 16.8282C47.9984 16.7027 48.0111 16.5545 47.9945 16.3786C47.8866 15.232 46.5775 11.8004 43.9093 8.69452C42.4498 6.99565 40.3213 5.09452 37.4152 3.81224C38.6652 3.55315 40.3745 3.31156 42.2884 3.35406V3.35406ZM15.157 39.9495C13.8161 41.5618 12.8902 41.2527 12.5857 41.1513C10.6016 40.4895 8.2993 36.2959 6.26953 29.6459C4.51317 23.8918 3.4868 18.1057 3.40544 16.4832C3.14908 11.3518 4.39294 7.77565 7.10271 5.85383C11.5127 2.72656 18.7632 4.59838 21.6766 5.5477C21.6348 5.58906 21.5911 5.6277 21.5498 5.66974C16.7688 10.4979 16.8823 18.747 16.8941 19.2513C16.8936 19.4459 16.91 19.7213 16.9323 20.1002C17.0145 21.4877 17.1677 24.07 16.7586 26.9943C16.3786 29.7118 17.2163 32.3716 19.0566 34.2918C19.2454 34.4885 19.4439 34.6757 19.6513 34.8527C18.8323 35.73 17.052 37.67 15.157 39.9495V39.9495ZM20.2659 33.1329C18.7827 31.5852 18.1091 29.4325 18.4175 27.2261C18.8493 24.137 18.69 21.4466 18.6043 20.0011C18.5923 19.7988 18.5816 19.6216 18.5754 19.4818C19.2738 18.8625 22.5104 17.1284 24.8186 17.6572C25.8718 17.8984 26.5136 18.6157 26.7804 19.8493C28.1613 26.2363 26.9632 28.8984 26.0004 31.0377C25.802 31.4784 25.6145 31.895 25.4545 32.3259L25.3304 32.6591C25.0163 33.5013 24.7241 34.2845 24.5429 35.0282C22.9661 35.0236 21.4323 34.35 20.2659 33.1327V33.1329ZM20.5079 41.7466C20.0475 41.6316 19.6334 41.4318 19.3904 41.2661C19.5934 41.1707 19.9545 41.0407 20.5809 40.9116C23.612 40.2877 24.0802 39.8472 25.1025 38.5493C25.3368 38.2516 25.6025 37.9143 25.9704 37.5034L25.9709 37.5029C26.5188 36.8893 26.7695 36.9934 27.2241 37.182C27.5925 37.3343 27.9513 37.7961 28.0968 38.3043C28.1657 38.5443 28.2429 38.9997 27.99 39.3543C25.8545 42.3443 22.7427 42.3059 20.5079 41.7466V41.7466ZM36.3713 56.5084C32.6632 57.3029 31.3502 55.4109 30.485 53.2479C29.9266 51.8516 29.652 45.5547 29.8468 38.6009C29.8493 38.5084 29.8361 38.4191 29.8107 38.335C29.7879 38.1689 29.7533 38.0047 29.707 37.8436C29.4175 36.8318 28.7118 35.9854 27.8652 35.6345C27.5288 35.4952 26.9116 35.2395 26.1698 35.4293C26.3279 34.7775 26.6023 34.0413 26.8998 33.2443L27.0245 32.9091C27.165 32.5311 27.3413 32.1395 27.5277 31.725C28.5352 29.4868 29.915 26.4211 28.4175 19.4954C27.8566 16.9013 25.9834 15.6345 23.1438 15.9288C21.4416 16.105 19.8841 16.7918 19.1073 17.1857C18.9402 17.2702 18.7875 17.352 18.6448 17.4316C18.8616 14.8179 19.6807 9.93338 22.7448 6.84292C24.6741 4.89747 27.2434 3.93656 30.3739 3.98838C36.542 4.08929 40.4975 7.25474 42.7298 9.8927C44.6534 12.1657 45.695 14.4554 46.1107 15.6904C42.9845 15.3725 40.8584 15.9895 39.7807 17.5304C37.4359 20.8822 41.0634 27.3877 42.8068 30.5143C43.1266 31.0872 43.4025 31.5825 43.4893 31.7929C44.057 33.1688 44.792 34.0875 45.3286 34.7579C45.4932 34.9634 45.6527 35.1627 45.7741 35.3368C44.8273 35.6097 43.1266 36.2404 43.2816 39.3929C43.1566 40.9747 42.2677 48.3807 41.8161 50.9972C41.22 54.4541 39.9479 55.7416 36.3713 56.5086V56.5084ZM51.8495 38.7957C50.8813 39.245 49.2611 39.582 47.722 39.6545C46.022 39.7341 45.1566 39.4641 44.9529 39.2979C44.8575 37.3334 45.5886 37.1282 46.3625 36.9109C46.4841 36.8768 46.6027 36.8434 46.7173 36.8034C46.7884 36.8613 46.8663 36.9188 46.9518 36.9752C48.3182 37.877 50.7552 37.9743 54.1959 37.2641L54.2336 37.2566C53.7695 37.6904 52.9754 38.2727 51.8495 38.7957Z" fill="#7C7C7F"/>
</g>
<defs>
<clipPath id="clip0_3805_9097">
<rect width="58.19" height="60" fill="white"/>
</clipPath>
</defs>
</svg>
