<svg width="30" height="30" viewBox="0 0 30 30" fill="none" xmlns="http://www.w3.org/2000/svg">
<path d="M27.5 22.506C27.5 23.1935 26.9425 23.7497 26.2563 23.7497H16.2438C15.9139 23.7497 15.5975 23.6187 15.3643 23.3854C15.131 23.1522 15 22.8358 15 22.506C15 22.1761 15.131 21.8597 15.3643 21.6265C15.5975 21.3932 15.9139 21.2622 16.2438 21.2622H26.2563C26.9438 21.2622 27.5 21.8185 27.5 22.506V22.506Z" fill="white"/>
<path d="M27.5 15.0001C27.5 15.6876 26.9425 16.2438 26.2563 16.2438H3.74375C3.41389 16.2438 3.09753 16.1128 2.86429 15.8796C2.63104 15.6463 2.5 15.33 2.5 15.0001C2.5 14.6702 2.63104 14.3539 2.86429 14.1206C3.09753 13.8874 3.41389 13.7563 3.74375 13.7563H26.2563C26.9438 13.7563 27.5 14.3138 27.5 15.0001V15.0001Z" fill="white"/>
<path d="M26.2562 8.7375C26.5861 8.7375 26.9025 8.60646 27.1357 8.37321C27.369 8.13997 27.5 7.82361 27.5 7.49375C27.5 7.16389 27.369 6.84753 27.1357 6.61429C26.9025 6.38104 26.5861 6.25 26.2562 6.25H11.2437C11.0804 6.25 10.9187 6.28217 10.7678 6.34467C10.6169 6.40718 10.4798 6.49879 10.3643 6.61429C10.2488 6.72978 10.1572 6.86689 10.0947 7.01779C10.0322 7.16869 10 7.33042 10 7.49375C10 7.65708 10.0322 7.81881 10.0947 7.96971C10.1572 8.12061 10.2488 8.25772 10.3643 8.37321C10.4798 8.48871 10.6169 8.58032 10.7678 8.64282C10.9187 8.70533 11.0804 8.7375 11.2437 8.7375H26.2562Z" fill="white"/>
</svg>
