<svg width="35" height="35" viewBox="0 0 35 35" fill="none" xmlns="http://www.w3.org/2000/svg">
<path d="M32.0833 26.2572C32.0833 27.0593 31.4329 27.7082 30.6323 27.7082H18.951C18.5662 27.7082 18.1971 27.5554 17.925 27.2832C17.6529 27.0111 17.5 26.642 17.5 26.2572C17.5 25.8724 17.6529 25.5033 17.925 25.2312C18.1971 24.959 18.5662 24.8062 18.951 24.8062H30.6323C31.4344 24.8062 32.0833 25.4551 32.0833 26.2572Z" fill="white"/>
<path d="M32.0834 17.4999C32.0834 18.302 31.433 18.9509 30.6324 18.9509H4.36779C3.98295 18.9509 3.61387 18.798 3.34175 18.5259C3.06963 18.2538 2.91675 17.8847 2.91675 17.4999C2.91675 17.115 3.06963 16.746 3.34175 16.4738C3.61387 16.2017 3.98295 16.0488 4.36779 16.0488H30.6324C31.4345 16.0488 32.0834 16.6992 32.0834 17.4999Z" fill="white"/>
<path d="M30.6324 10.1936C31.0172 10.1936 31.3863 10.0407 31.6584 9.76859C31.9305 9.49646 32.0834 9.12738 32.0834 8.74254C32.0834 8.3577 31.9305 7.98863 31.6584 7.7165C31.3863 7.44438 31.0172 7.2915 30.6324 7.2915H13.1178C12.9272 7.2915 12.7385 7.32904 12.5625 7.40196C12.3865 7.47488 12.2265 7.58176 12.0917 7.7165C11.957 7.85125 11.8501 8.01121 11.7772 8.18726C11.7043 8.3633 11.6667 8.55199 11.6667 8.74254C11.6667 8.9331 11.7043 9.12179 11.7772 9.29783C11.8501 9.47388 11.957 9.63384 12.0917 9.76859C12.2265 9.90333 12.3865 10.0102 12.5625 10.0831C12.7385 10.1561 12.9272 10.1936 13.1178 10.1936H30.6324Z" fill="white"/>
</svg>
