<svg width="176" height="50" viewBox="0 0 176 50" fill="none" xmlns="http://www.w3.org/2000/svg">
<path fill-rule="evenodd" clip-rule="evenodd" d="M163.262 20.7061C163.104 20.7376 162.946 21.0852 162.946 21.2746C162.915 22.539 162.883 25.889 162.883 28.1643C162.883 28.2277 162.978 28.3541 163.073 28.3541C163.547 28.3856 164.684 28.4171 165.664 28.4171C167.023 28.4171 167.813 28.2277 168.256 28.0383C169.393 27.4691 169.931 26.2366 169.931 24.8774C169.931 21.8123 167.782 20.6428 164.589 20.6428C164.368 20.6113 163.737 20.6113 163.262 20.7061V20.7061ZM171.416 34.8328C171.416 31.7041 169.109 29.9657 164.937 29.9657C164.748 29.9657 163.42 29.9342 163.104 29.9972C163.009 30.0291 162.883 30.0924 162.883 30.1873C162.883 32.4308 162.851 36.0024 162.946 37.3928C163.009 37.9931 163.452 38.8465 163.989 39.0993C164.558 39.4154 165.854 39.4784 166.739 39.4784C169.235 39.4784 171.416 38.088 171.416 34.8328V34.8328ZM156.815 18.9681C157.131 18.9681 158.079 19.0626 160.513 19.0626C162.82 19.0626 164.653 18.9996 166.897 18.9996C169.646 18.9996 173.438 19.9791 173.438 24.0876C173.438 26.1102 172.016 27.7222 170.152 28.5123C170.057 28.5438 170.057 28.6068 170.152 28.6383C172.806 29.3024 175.145 30.9455 175.145 34.0424C175.145 37.0767 173.249 39.0044 170.499 40.2054C168.824 40.9322 166.739 41.1849 164.621 41.1849C163.009 41.1849 158.68 40.9955 156.278 41.0589C156.025 40.9637 156.499 39.826 156.72 39.6366C157.289 39.6048 157.732 39.5733 158.332 39.3835C159.186 39.1626 159.28 38.9096 159.407 37.614C159.47 36.5078 159.47 32.5887 159.47 29.8078C159.47 25.9839 159.502 23.3924 159.47 22.1284C159.438 21.1489 159.091 20.8325 158.396 20.6428C157.858 20.5483 156.973 20.4215 156.246 20.327C156.088 20.1688 156.625 19.0941 156.815 18.9681ZM138.58 38.6253C139.339 39.2253 140.824 39.478 142.151 39.478C143.858 39.478 145.564 39.1626 147.208 37.6767C148.883 36.1602 150.052 33.8215 150.052 30.0924C150.052 26.5209 148.693 23.6133 145.912 21.9072C144.332 20.927 142.309 20.5167 139.971 20.5167C139.275 20.5167 138.612 20.5483 138.201 20.7376C138.106 20.801 137.885 21.0852 137.885 21.2431C137.822 21.8753 137.822 26.7421 137.822 29.5866C137.822 32.5256 137.822 36.6342 137.885 37.1082C137.885 37.5825 138.106 38.3092 138.58 38.6253H138.58ZM131.406 18.9678C132.007 18.9678 134.313 19.0626 135.42 19.0626C137.411 19.0626 138.833 18.9681 142.594 18.9681C145.754 18.9681 148.409 19.8212 150.305 21.4328C152.612 23.4239 153.813 26.1736 153.813 29.5233C153.813 34.2955 151.632 37.0452 149.451 38.6253C147.271 40.237 144.427 41.1849 140.382 41.1849C138.233 41.1849 134.535 41.1219 131.469 41.09H131.438C131.28 40.8058 131.69 39.6996 131.943 39.6681C132.765 39.5733 132.986 39.5414 133.397 39.3839C134.061 39.1308 134.187 38.7832 134.282 37.614C134.377 35.4332 134.345 32.8102 134.345 29.8393C134.345 27.7222 134.377 23.5818 134.313 22.2544C134.219 21.1486 133.745 20.864 132.797 20.6743C132.323 20.5798 131.69 20.453 130.806 20.3585C130.679 20.137 131.248 19.1575 131.406 18.9681V18.9678Z" fill="#8E714E"/>
<path fill-rule="evenodd" clip-rule="evenodd" d="M93.1659 39.8578C92.3758 39.763 91.807 39.6369 91.1118 39.3208C91.0169 39.2575 90.8587 38.9417 90.8587 38.815C90.7957 37.7089 90.7957 34.5486 90.7957 32.4315C90.7957 30.7246 90.5115 29.2393 89.7844 28.1965C88.931 26.9952 87.6988 26.3003 86.1183 26.3003C84.7279 26.3003 82.8632 27.2482 81.3145 28.5756C81.283 28.6071 81.0303 28.8287 81.0618 28.4808C81.0618 28.1332 81.1252 27.438 81.1567 26.9637C81.1885 26.5212 80.9354 26.3003 80.9354 26.3003C79.9241 26.8058 77.08 27.4695 76.0368 27.564C75.2786 27.7226 75.0889 28.4493 75.8793 28.702H75.9108C76.7635 28.9547 77.3327 29.2393 77.7748 29.5239C78.0909 29.7767 78.0594 30.1243 78.0594 30.4089C78.0909 32.7787 78.0909 36.4133 77.9964 38.4044C77.9649 39.1945 77.7437 39.4787 77.1745 39.6051L77.2378 39.5736C76.7954 39.6684 76.4478 39.763 75.9104 39.8263C75.7207 40.016 75.7207 41.0273 75.9104 41.2486C76.258 41.2486 78.0909 41.1537 79.6084 41.1537C81.694 41.1537 82.7687 41.2486 83.3056 41.2486C83.5269 40.9958 83.5902 40.0476 83.4639 39.8263C82.8632 39.7948 82.4207 39.7318 82.0101 39.6051C81.4413 39.4784 81.283 39.1945 81.2512 38.5308C81.1885 36.8554 81.1885 33.316 81.1885 30.9143C81.1885 30.2506 81.3779 29.9345 81.5673 29.7448C82.2943 29.113 83.4639 28.6705 84.5067 28.6705C85.518 28.6705 86.1813 28.9866 86.6872 29.3976C87.3824 29.966 87.6036 30.788 87.6984 31.3883C87.8563 32.7472 87.7933 35.4335 87.7933 37.7722C87.7933 39.0363 87.6985 39.3523 87.2248 39.5102C87.0032 39.6051 86.4344 39.7318 85.7707 39.7945C85.5495 40.016 85.6128 40.9958 85.7707 41.2171C86.6871 41.2171 87.7618 41.1222 89.3419 41.1222C91.3012 41.1222 92.5656 41.2171 93.0714 41.2171C93.2289 41.0273 93.2923 40.1109 93.1659 39.8578V39.8578ZM101.92 27.7859C100.245 27.7859 99.2022 29.0815 99.2022 31.1037C99.2022 33.1582 100.119 35.5284 102.71 35.5284C103.153 35.5284 103.974 35.3387 104.353 34.8962C104.954 34.3277 105.365 33.1897 105.365 31.9886C105.365 29.3657 104.069 27.7856 101.92 27.7856V27.7859ZM101.699 41.7541C101.067 41.7541 100.624 41.9438 100.34 42.102C99.0125 42.9547 98.4121 43.7767 98.4121 44.7568C98.4121 45.6729 98.7598 46.3996 99.5183 47.0318C100.435 47.8219 101.699 48.2013 103.31 48.2013C106.534 48.2013 107.956 46.463 107.956 44.7568C107.956 43.5554 107.356 42.7654 106.123 42.3232C105.239 41.9438 103.627 41.7541 101.699 41.7541V41.7541ZM101.92 49.9712C99.9923 49.9712 98.6015 49.5602 97.4008 48.6438C96.2313 47.7589 95.7258 46.4315 95.7258 45.515C95.7258 45.2623 95.7892 44.5667 96.358 43.9349C96.7053 43.5554 97.4642 42.8287 99.2656 41.5962C99.3286 41.5647 99.3601 41.5332 99.3601 41.4695C99.3601 41.4065 99.2967 41.3431 99.2337 41.3119C97.7485 40.7431 97.306 39.8263 97.1793 39.3208V39.2575C97.1481 39.0678 97.0848 38.8784 97.3693 38.6887C97.5906 38.5308 97.9067 38.341 98.2539 38.1202C98.7913 37.8037 99.3601 37.4561 99.7077 37.1715C99.7711 37.1085 99.7711 37.0455 99.7711 36.9821C99.7711 36.9188 99.7077 36.8554 99.6443 36.8243C97.4327 36.0972 96.3265 34.4537 96.3265 31.9886C96.3265 30.377 97.0532 28.9232 98.3488 28.0068C99.2337 27.3116 101.446 26.4582 102.9 26.4582H102.995C104.48 26.4897 105.302 26.8058 106.471 27.2167C107.103 27.438 107.704 27.5325 108.526 27.5325C109.758 27.5325 110.295 27.1534 110.737 26.7113C110.769 26.7743 110.832 26.9325 110.864 27.3431C110.895 27.7541 110.769 28.3544 110.453 28.7969C110.2 29.1445 109.631 29.3976 109.062 29.3976H108.904C108.335 29.3342 108.082 29.2708 108.082 29.2708L107.956 29.3342C107.925 29.3976 107.956 29.4606 107.988 29.5554L108.02 29.6188C108.083 29.903 108.209 30.7561 108.209 30.9777C108.209 33.5691 107.166 34.7065 106.06 35.5599C104.985 36.35 103.753 36.8554 102.362 36.9821C102.331 36.9821 102.205 36.9821 101.92 37.0137C101.762 37.0137 101.541 37.0455 101.509 37.0455H101.478C101.225 37.1085 100.593 37.4246 100.593 37.9616C100.593 38.4356 100.877 39.0047 102.236 39.0996C102.52 39.1311 102.805 39.1311 103.121 39.163C104.922 39.289 107.166 39.4472 108.209 39.7948C109.663 40.3318 110.579 41.6277 110.579 43.1763C110.579 45.5154 108.905 47.6958 106.123 49.0544C104.765 49.6551 103.405 49.9712 101.92 49.9712V49.9712ZM119.934 27.9438C119.27 27.9438 118.67 28.1013 118.227 28.4174C116.995 29.176 116.363 30.6931 116.363 32.9051C116.363 37.0455 118.448 39.953 121.419 39.953C122.304 39.953 122.999 39.7 123.6 39.1945C124.516 38.4356 124.991 36.9188 124.991 34.8013C124.991 30.6931 122.936 27.9434 119.934 27.9434L119.934 27.9438ZM120.503 41.4698C115.13 41.4698 113.203 37.5195 113.203 33.8219C113.203 31.2304 114.245 29.2393 116.331 27.8171C117.817 26.9006 119.586 26.3952 121.167 26.3952C125.275 26.3952 128.151 29.3342 128.151 33.5691C128.151 36.4448 127.013 38.7202 124.832 40.1109C123.79 40.8061 121.988 41.4698 120.503 41.4698H120.503V41.4698ZM64.1858 27.9434C63.5221 27.9434 62.9217 28.1013 62.4789 28.4174C61.2467 29.176 60.6145 30.6931 60.6145 32.9051C60.6145 37.0455 62.7002 39.953 65.6711 39.953C66.556 39.953 67.2512 39.7 67.8519 39.1945C68.768 38.4356 69.2423 36.9188 69.2423 34.8013C69.2423 30.6931 67.2197 27.9434 64.1858 27.9434ZM64.7546 41.4698C59.382 41.4698 57.4543 37.5195 57.4543 33.8219C57.4543 31.2304 58.4971 29.2393 60.5827 27.8171C62.0683 26.9006 63.8382 26.3952 65.4183 26.3952C69.5269 26.3952 72.4026 29.3342 72.4026 33.5691C72.4026 36.4448 71.2649 38.7202 69.0841 40.1109C68.0728 40.8061 66.2714 41.4698 64.7546 41.4698ZM28.632 41.1537C28.5687 41.0592 28.5053 40.7746 28.5371 40.427C28.5371 40.1739 28.6005 40.016 28.632 39.953C29.2957 39.8578 29.6433 39.763 30.0224 39.6684C30.6546 39.5102 30.9074 39.163 30.9389 38.3729C31.0341 36.4767 31.0341 32.8736 31.0022 30.377V30.3136C31.0022 30.0294 31.0022 29.6815 30.6546 29.4287C30.1488 29.113 29.5484 28.8287 28.7584 28.6068C28.4741 28.5126 28.2844 28.3544 28.3159 28.165C28.3159 27.9753 28.5056 27.7541 28.9166 27.6907C29.9594 27.5958 32.6769 26.9325 33.7515 26.4582C33.8149 26.5212 33.9097 26.7113 33.9097 26.964L33.8782 27.3113C33.8464 27.6592 33.8149 28.0702 33.8149 28.4808C33.8149 28.6071 33.9416 28.702 34.0676 28.702C34.131 28.702 34.1943 28.6705 34.2574 28.6387C36.28 27.0585 38.1128 26.4897 39.0608 26.4897C40.6097 26.4897 41.8108 27.2167 42.7272 28.7335C42.7902 28.8287 42.8536 28.8602 42.9484 28.8602C43.0115 28.8602 43.106 28.8287 43.1378 28.7654C45.0026 27.3431 46.8673 26.4897 48.0995 26.4897C51.0385 26.4897 52.7769 28.6705 52.7769 32.3681C52.7769 33.4109 52.7769 34.7698 52.7454 36.0027C52.7454 37.1085 52.7139 38.1198 52.7139 38.8469C52.7139 39.0044 52.9347 39.5102 53.2824 39.6051C53.7248 39.8263 54.3255 39.9212 55.1156 40.0476H55.1471C55.2104 40.2688 55.0841 41.0904 54.9577 41.2486C54.768 41.2486 54.4834 41.2486 54.1676 41.2171C53.3676 41.1753 52.5667 41.1542 51.7656 41.1537C49.8063 41.1537 48.795 41.1852 47.8149 41.2486C47.7522 40.9958 47.7204 40.2373 47.8149 40.0476C48.3841 39.953 48.6683 39.8578 49.0163 39.7633C49.6484 39.5736 49.8063 39.289 49.8382 38.4674C49.8382 37.8671 49.9642 32.7472 49.7745 31.5147C49.5851 30.2506 48.6368 28.7654 46.5508 28.7654C45.7608 28.7654 44.5286 29.0815 43.3276 29.9976C43.2645 30.0609 43.2008 30.2188 43.2008 30.3136V30.3455C43.3276 31.0089 43.3276 31.7678 43.3276 32.9369V34.991C43.3276 36.4133 43.2957 37.7407 43.3276 38.7517C43.3276 39.4472 43.7385 39.6051 44.0861 39.7318C44.2758 39.763 44.4019 39.7948 44.5601 39.8263C44.8443 39.8897 45.1289 39.953 45.5714 40.0476C45.6348 40.1743 45.6347 40.5849 45.5399 40.9325C45.508 41.1222 45.4447 41.2167 45.4132 41.2486C44.3389 41.2171 43.2327 41.1852 41.6211 41.1852C41.1471 41.1852 40.3252 41.2171 39.63 41.2171C39.0608 41.2171 38.5238 41.2486 38.208 41.2486C38.1762 41.1852 38.1128 40.9643 38.1128 40.6164C38.1128 40.3321 38.1762 40.1109 38.2395 40.0476C38.3974 40.016 38.5238 39.9845 38.682 39.9845C39.0608 39.9212 39.3772 39.8578 39.693 39.7948C40.2306 39.6369 40.42 39.3523 40.4515 38.6571C40.5464 37.077 40.6413 32.5578 40.42 31.4198C40.0409 29.5869 38.9981 28.6705 37.3228 28.6705C36.3433 28.6705 35.1104 29.1445 34.0995 29.9034C33.9413 30.0294 33.8149 30.3452 33.8149 30.6297V32.4945C33.8149 34.7698 33.8149 37.6143 33.8464 38.8469C33.8782 39.2256 34.0043 39.6684 34.7313 39.8263C34.8895 39.8578 35.1423 39.9212 35.4584 39.953L36.0269 40.0476C36.0906 40.2373 36.0587 40.9958 35.9324 41.2486C35.6163 41.2486 35.2371 41.2171 34.7943 41.2171C34.131 41.1852 33.2776 41.1537 32.3296 41.1537C31.2234 41.1537 30.4334 41.1852 29.8012 41.2171C29.3587 41.1537 29.0111 41.1537 28.632 41.1537V41.1537Z" fill="#7C7C7F"/>
<path fill-rule="evenodd" clip-rule="evenodd" d="M12.0085 48.7385L10.7129 48.2957C10.7129 48.2957 10.8711 41.6909 8.50059 41.2169C6.9208 39.3837 8.75402 -36.5272 14.4424 40.9639C14.4424 40.9639 12.4828 41.9433 12.1352 43.6187C11.7557 45.2622 12.0085 48.7385 12.0085 48.7385V48.7385Z" fill="white"/>
<path fill-rule="evenodd" clip-rule="evenodd" d="M12.0085 48.7385L10.7129 48.2957C10.7129 48.2957 10.8711 41.6909 8.50059 41.2169C6.9208 39.3837 8.75402 -36.5272 14.4424 40.9639C14.4424 40.9639 12.4828 41.9433 12.1352 43.6187C11.7557 45.2622 12.0085 48.7385 12.0085 48.7385V48.7385Z" fill="#A6A385"/>
<path fill-rule="evenodd" clip-rule="evenodd" d="M12.704 42.3549C12.704 42.3549 24.0499 34.8963 21.3947 19.3788C18.8352 8.09697 12.7988 4.39937 12.1352 2.97711C11.4084 1.96581 10.7129 0.196289 10.7129 0.196289L11.1872 31.5778C11.1872 31.6096 10.2074 41.1853 12.7043 42.3552" fill="white"/>
<path fill-rule="evenodd" clip-rule="evenodd" d="M12.704 42.3549C12.704 42.3549 24.0499 34.8963 21.3947 19.3788C18.8352 8.09697 12.7988 4.39937 12.1352 2.97711C11.4084 1.96581 10.7129 0.196289 10.7129 0.196289L11.1872 31.5778C11.1872 31.6096 10.2074 41.1853 12.7043 42.3552" fill="#499D4A"/>
<path fill-rule="evenodd" clip-rule="evenodd" d="M10.0495 42.7652C10.0495 42.7652 -0.601216 35.4964 0.0309762 22.6974C0.631319 9.8981 8.15289 3.60906 9.60666 2.47139C10.5549 1.46009 10.5865 1.08064 10.6498 0.0693359C11.3135 1.4916 11.1871 21.3385 11.2817 23.6769C11.5659 32.6837 10.7762 41.0591 10.0495 42.7652Z" fill="white"/>
<path fill-rule="evenodd" clip-rule="evenodd" d="M10.0495 42.7652C10.0495 42.7652 -0.601216 35.4964 0.0309762 22.6974C0.631319 9.8981 8.15289 3.60906 9.60666 2.47139C10.5549 1.46009 10.5865 1.08064 10.6498 0.0693359C11.3135 1.4916 11.1871 21.3385 11.2817 23.6769C11.5659 32.6837 10.7762 41.0591 10.0495 42.7652Z" fill="#58AA50"/>
</svg>
