<svg width="114" height="36" viewBox="0 0 114 36" fill="none" xmlns="http://www.w3.org/2000/svg">
<g filter="url(#filter0_d_3813_9220)">
<path d="M18.4404 34.9999C17.9298 34.9999 17.4533 34.8713 17.0108 34.6462L12.4837 32.106C11.803 31.7523 12.1433 31.6237 12.3475 31.5594C13.2665 31.27 13.4367 31.2057 14.3898 30.6911C14.492 30.6268 14.6281 30.659 14.7301 30.7233L18.2021 32.6847C18.3383 32.749 18.5085 32.749 18.6106 32.6847L32.1919 25.2572C32.328 25.1928 32.3961 25.0642 32.3961 24.9035V10.0802C32.3961 9.91944 32.328 9.79083 32.1919 9.72653L18.6106 2.33097C18.4744 2.26667 18.3042 2.26667 18.2021 2.33097L4.62083 9.72665C4.48468 9.79095 4.41661 9.95172 4.41661 10.0803V24.9035C4.41661 25.0321 4.48468 25.1928 4.62083 25.2572L8.33109 27.2828C10.3394 28.2474 11.5986 27.122 11.5986 25.9967V11.3663C11.5986 11.1734 11.7689 10.9805 12.0072 10.9805H13.7432C13.9474 10.9805 14.1516 11.1413 14.1516 11.3663V25.9966C14.1516 28.5368 12.6879 30.0158 10.135 30.0158C9.35219 30.0158 8.73953 30.0158 7.00366 29.212L3.42954 27.2828C2.54459 26.8004 2 25.9001 2 24.9355V10.1125C2 9.14789 2.54459 8.24761 3.42954 7.76519L17.0108 0.337607C17.8618 -0.112536 19.019 -0.112536 19.8699 0.337607L33.4512 7.76519C34.3362 8.24749 34.8808 9.14777 34.8808 10.1125V24.9356C34.8808 25.9002 34.3362 26.8005 33.4512 27.2828L19.8699 34.7106C19.4274 34.9035 18.9169 35 18.4404 35V34.9999ZM22.627 24.8069C16.6703 24.8069 15.445 22.2346 15.445 20.0481C15.445 19.8552 15.6152 19.6623 15.8535 19.6623H17.6234C17.8276 19.6623 17.9979 19.7909 17.9979 19.9838C18.2702 21.6879 19.053 22.524 22.6611 22.524C25.5203 22.524 26.7457 21.9131 26.7457 20.4662C26.7457 19.6301 26.4054 19.0192 21.9463 18.6011C18.2362 18.2474 15.9215 17.4758 15.9215 14.6785C15.9215 12.0738 18.236 10.5305 22.1165 10.5305C26.4733 10.5305 28.6177 11.9452 28.89 15.032C28.89 15.1285 28.856 15.2249 28.7879 15.3214C28.7199 15.3857 28.6177 15.45 28.5156 15.45H26.7457C26.5754 15.45 26.4054 15.3214 26.3712 15.1606C25.9628 13.3922 24.9076 12.8135 22.1165 12.8135C18.9851 12.8135 18.6106 13.8424 18.6106 14.614C18.6106 15.5466 19.053 15.8358 23.2737 16.3503C27.4605 16.8647 29.4346 17.6044 29.4346 20.3697C29.4006 23.1992 26.9499 24.8069 22.627 24.8069V24.8069Z" fill="url(#paint0_linear_3813_9220)"/>
<path d="M57.4302 24H55.7922L49.2042 14.01V24H47.5662V11.436H49.2042L55.7922 21.408V11.436H57.4302V24ZM64.5244 24.162C63.6004 24.162 62.7604 23.952 62.0044 23.532C61.2604 23.112 60.6724 22.518 60.2404 21.75C59.8204 20.97 59.6104 20.07 59.6104 19.05C59.6104 18.042 59.8264 17.154 60.2584 16.386C60.7024 15.606 61.3024 15.012 62.0584 14.604C62.8144 14.184 63.6604 13.974 64.5964 13.974C65.5324 13.974 66.3784 14.184 67.1344 14.604C67.8904 15.012 68.4844 15.6 68.9164 16.368C69.3604 17.136 69.5824 18.03 69.5824 19.05C69.5824 20.07 69.3544 20.97 68.8984 21.75C68.4544 22.518 67.8484 23.112 67.0804 23.532C66.3124 23.952 65.4604 24.162 64.5244 24.162ZM64.5244 22.722C65.1124 22.722 65.6644 22.584 66.1804 22.308C66.6964 22.032 67.1104 21.618 67.4224 21.066C67.7464 20.514 67.9084 19.842 67.9084 19.05C67.9084 18.258 67.7524 17.586 67.4404 17.034C67.1284 16.482 66.7204 16.074 66.2164 15.81C65.7124 15.534 65.1664 15.396 64.5784 15.396C63.9784 15.396 63.4264 15.534 62.9224 15.81C62.4304 16.074 62.0344 16.482 61.7344 17.034C61.4344 17.586 61.2844 18.258 61.2844 19.05C61.2844 19.854 61.4284 20.532 61.7164 21.084C62.0164 21.636 62.4124 22.05 62.9044 22.326C63.3964 22.59 63.9364 22.722 64.5244 22.722ZM71.1241 19.032C71.1241 18.024 71.3281 17.142 71.7361 16.386C72.1441 15.618 72.7021 15.024 73.4101 14.604C74.1301 14.184 74.9341 13.974 75.8221 13.974C76.5901 13.974 77.3041 14.154 77.9641 14.514C78.6241 14.862 79.1281 15.324 79.4761 15.9V10.68H81.1321V24H79.4761V22.146C79.1521 22.734 78.6721 23.22 78.0361 23.604C77.4001 23.976 76.6561 24.162 75.8041 24.162C74.9281 24.162 74.1301 23.946 73.4101 23.514C72.7021 23.082 72.1441 22.476 71.7361 21.696C71.3281 20.916 71.1241 20.028 71.1241 19.032ZM79.4761 19.05C79.4761 18.306 79.3261 17.658 79.0261 17.106C78.7261 16.554 78.3181 16.134 77.8021 15.846C77.2981 15.546 76.7401 15.396 76.1281 15.396C75.5161 15.396 74.9581 15.54 74.4541 15.828C73.9501 16.116 73.5481 16.536 73.2481 17.088C72.9481 17.64 72.7981 18.288 72.7981 19.032C72.7981 19.788 72.9481 20.448 73.2481 21.012C73.5481 21.564 73.9501 21.99 74.4541 22.29C74.9581 22.578 75.5161 22.722 76.1281 22.722C76.7401 22.722 77.2981 22.578 77.8021 22.29C78.3181 21.99 78.7261 21.564 79.0261 21.012C79.3261 20.448 79.4761 19.794 79.4761 19.05ZM92.9002 18.69C92.9002 19.002 92.8822 19.332 92.8462 19.68H84.9622C85.0222 20.652 85.3522 21.414 85.9522 21.966C86.5642 22.506 87.3022 22.776 88.1662 22.776C88.8742 22.776 89.4622 22.614 89.9302 22.29C90.4102 21.954 90.7462 21.51 90.9382 20.958H92.7022C92.4382 21.906 91.9102 22.68 91.1182 23.28C90.3262 23.868 89.3422 24.162 88.1662 24.162C87.2302 24.162 86.3902 23.952 85.6462 23.532C84.9142 23.112 84.3382 22.518 83.9182 21.75C83.4982 20.97 83.2882 20.07 83.2882 19.05C83.2882 18.03 83.4922 17.136 83.9002 16.368C84.3082 15.6 84.8782 15.012 85.6102 14.604C86.3542 14.184 87.2062 13.974 88.1662 13.974C89.1022 13.974 89.9302 14.178 90.6502 14.586C91.3702 14.994 91.9222 15.558 92.3062 16.278C92.7022 16.986 92.9002 17.79 92.9002 18.69ZM91.2082 18.348C91.2082 17.724 91.0702 17.19 90.7942 16.746C90.5182 16.29 90.1402 15.948 89.6602 15.72C89.1922 15.48 88.6702 15.36 88.0942 15.36C87.2662 15.36 86.5582 15.624 85.9702 16.152C85.3942 16.68 85.0642 17.412 84.9802 18.348H91.2082ZM95.5843 24.108C95.2723 24.108 95.0083 24 94.7923 23.784C94.5763 23.568 94.4683 23.304 94.4683 22.992C94.4683 22.68 94.5763 22.416 94.7923 22.2C95.0083 21.984 95.2723 21.876 95.5843 21.876C95.8843 21.876 96.1363 21.984 96.3403 22.2C96.5563 22.416 96.6643 22.68 96.6643 22.992C96.6643 23.304 96.5563 23.568 96.3403 23.784C96.1363 24 95.8843 24.108 95.5843 24.108ZM99.7236 12.534C99.4116 12.534 99.1476 12.426 98.9316 12.21C98.7276 11.994 98.6256 11.73 98.6256 11.418C98.6256 11.106 98.7276 10.842 98.9316 10.626C99.1476 10.41 99.4116 10.302 99.7236 10.302C100.036 10.302 100.294 10.41 100.498 10.626C100.714 10.842 100.822 11.106 100.822 11.418C100.822 11.73 100.714 11.994 100.498 12.21C100.294 12.426 100.036 12.534 99.7236 12.534ZM100.534 26.142C100.534 27.018 100.312 27.66 99.8676 28.068C99.4236 28.476 98.7756 28.68 97.9236 28.68H96.9696V27.294H97.6536C98.1096 27.294 98.4276 27.204 98.6076 27.024C98.7996 26.844 98.8956 26.538 98.8956 26.106V14.136H100.534V26.142ZM106.798 24.162C106.042 24.162 105.364 24.036 104.764 23.784C104.164 23.52 103.69 23.16 103.342 22.704C102.994 22.236 102.802 21.702 102.766 21.102H104.458C104.506 21.594 104.734 21.996 105.142 22.308C105.562 22.62 106.108 22.776 106.78 22.776C107.404 22.776 107.896 22.638 108.256 22.362C108.616 22.086 108.796 21.738 108.796 21.318C108.796 20.886 108.604 20.568 108.22 20.364C107.836 20.148 107.242 19.938 106.438 19.734C105.706 19.542 105.106 19.35 104.638 19.158C104.182 18.954 103.786 18.66 103.45 18.276C103.126 17.88 102.964 17.364 102.964 16.728C102.964 16.224 103.114 15.762 103.414 15.342C103.714 14.922 104.14 14.592 104.692 14.352C105.244 14.1 105.874 13.974 106.582 13.974C107.674 13.974 108.556 14.25 109.228 14.802C109.9 15.354 110.26 16.11 110.308 17.07H108.67C108.634 16.554 108.424 16.14 108.04 15.828C107.668 15.516 107.164 15.36 106.528 15.36C105.94 15.36 105.472 15.486 105.124 15.738C104.776 15.99 104.602 16.32 104.602 16.728C104.602 17.052 104.704 17.322 104.908 17.538C105.124 17.742 105.388 17.91 105.7 18.042C106.024 18.162 106.468 18.3 107.032 18.456C107.74 18.648 108.316 18.84 108.76 19.032C109.204 19.212 109.582 19.488 109.894 19.86C110.218 20.232 110.386 20.718 110.398 21.318C110.398 21.858 110.248 22.344 109.948 22.776C109.648 23.208 109.222 23.55 108.67 23.802C108.13 24.042 107.506 24.162 106.798 24.162Z" fill="#7C7C7F"/>
</g>
<defs>
<filter id="filter0_d_3813_9220" x="0" y="0" width="112.398" height="39" filterUnits="userSpaceOnUse" color-interpolation-filters="sRGB">
<feFlood flood-opacity="0" result="BackgroundImageFix"/>
<feColorMatrix in="SourceAlpha" type="matrix" values="0 0 0 0 0 0 0 0 0 0 0 0 0 0 0 0 0 0 127 0" result="hardAlpha"/>
<feOffset dy="2"/>
<feGaussianBlur stdDeviation="1"/>
<feComposite in2="hardAlpha" operator="out"/>
<feColorMatrix type="matrix" values="0 0 0 0 0 0 0 0 0 0 0 0 0 0 0 0 0 0 0.25 0"/>
<feBlend mode="normal" in2="BackgroundImageFix" result="effect1_dropShadow_3813_9220"/>
<feBlend mode="normal" in="SourceGraphic" in2="effect1_dropShadow_3813_9220" result="shape"/>
</filter>
<linearGradient id="paint0_linear_3813_9220" x1="18.4404" y1="0" x2="18.4404" y2="35" gradientUnits="userSpaceOnUse">
<stop stop-color="#6CC04A"/>
<stop offset="1" stop-color="#7C7C7F"/>
</linearGradient>
</defs>
</svg>
