<svg width="59" height="60" viewBox="0 0 59 60" fill="none" xmlns="http://www.w3.org/2000/svg">
<g clip-path="url(#clip0_3805_9097)">
<path d="M57.9606 35.9288C57.6117 34.8722 56.6979 34.1363 55.516 33.9597C54.9588 33.8765 54.3206 33.912 53.5654 34.0677C52.249 34.3393 51.2724 34.4427 50.5597 34.4627C53.2499 29.9206 55.4374 24.7411 56.6967 19.8654C58.7331 11.9815 57.6449 8.38995 56.3733 6.7654C53.0081 2.4654 48.0983 0.155401 42.1751 0.0847191C39.0154 0.0460827 36.2415 0.669946 34.7944 1.11858C33.4472 0.880855 31.9985 0.748128 30.4785 0.723583C27.6292 0.678128 25.1117 1.29926 22.9606 2.57586C21.7697 2.17313 19.8583 1.6054 17.651 1.24313C12.4597 0.390855 8.27558 1.05495 5.21513 3.21699C1.50922 5.83472 -0.208734 10.3829 0.108993 16.7352C0.209902 18.752 1.33808 24.8884 3.11445 30.7079C4.13536 34.0529 5.22399 36.8306 6.35013 38.9647C7.94718 41.9909 9.65604 43.7729 11.5744 44.4129C12.6497 44.7711 14.6033 45.022 16.6581 43.3106C16.9185 43.6261 17.266 43.9395 17.7272 44.2306C18.3129 44.5999 19.029 44.9018 19.7442 45.0806C22.3217 45.7249 24.736 45.5638 26.7958 44.6606C26.8085 45.027 26.8183 45.377 26.8265 45.6793C26.8401 46.1695 26.8538 46.6502 26.8717 47.0997C26.9938 50.1393 27.2006 52.5027 27.8133 54.1563C27.8469 54.2472 27.8922 54.3859 27.9399 54.5329C28.2456 55.4688 28.7567 57.0356 30.0572 58.2627C31.4038 59.5338 33.0326 59.9236 34.5244 59.9236C35.2726 59.9236 35.9865 59.8254 36.6126 59.6913C38.8444 59.2129 41.3792 58.4843 43.2129 55.8734C44.9465 53.4052 45.7892 49.6877 45.9417 43.8302C45.9615 43.6645 45.9797 43.5063 45.9972 43.3556L46.0335 43.0461L46.4419 43.082L46.5472 43.089C48.8204 43.1927 51.5999 42.7106 53.3069 41.9177C54.6558 41.2918 58.9783 39.0097 57.9606 35.9288" fill="#7C7C7F"/>
<path d="M54.0738 36.5278C47.3147 37.9221 46.8499 35.6337 46.8499 35.6337C53.9863 25.0444 56.9697 11.6028 54.3954 8.31303C47.3717 -0.660837 35.2138 3.58325 35.0108 3.69325L34.9456 3.70507C33.6101 3.4278 32.1158 3.2628 30.436 3.2353C27.3779 3.1853 25.0579 4.03712 23.2974 5.37212C23.2974 5.37212 1.60877 -3.56288 2.61763 16.6094C2.83218 20.9008 8.76854 49.0805 15.849 40.5689C18.437 37.4564 20.9376 34.8248 20.9376 34.8248C22.1795 35.6498 23.6663 36.0708 25.2249 35.9196L25.346 35.8169C25.3083 36.2033 25.3256 36.5812 25.3945 37.0287C23.5704 39.0667 24.1065 39.4244 20.4601 40.1751C16.7704 40.9355 18.9379 42.2892 20.3531 42.6433C22.0688 43.0721 26.0379 43.6798 28.7197 39.9255L28.6129 40.3539C29.3274 40.9264 29.8292 44.0773 29.7451 46.9339C29.661 49.7903 29.6049 51.7514 30.1679 53.2833C30.7313 54.8151 31.2924 58.2617 36.086 57.2346C40.0913 56.3762 42.167 54.1519 42.4558 50.4414C42.6606 47.8037 43.1245 48.1937 43.1535 45.8353L43.5256 44.7189C43.9545 41.1433 43.5938 39.9896 46.0613 40.5262L46.6613 40.5789C48.4772 40.6614 50.8545 40.2867 52.2497 39.6383C55.2538 38.2442 57.0356 35.9162 54.0733 36.5278H54.0738" fill="#336791"/>
<path d="M24.5667 18.5282C23.9577 18.4434 23.4061 18.5218 23.127 18.7332C22.9702 18.8521 22.9215 18.9898 22.9083 19.0846C22.8733 19.3357 23.0492 19.6134 23.1574 19.7566C23.4633 20.1621 23.9102 20.4407 24.3524 20.5021C24.4165 20.5112 24.4804 20.5153 24.5438 20.5153C25.2813 20.5153 25.952 19.9409 26.0111 19.5171C26.0849 18.9862 25.3142 18.6323 24.5667 18.5284" fill="white"/>
<path d="M44.7452 18.5454C44.687 18.1293 43.9465 18.0107 43.2438 18.1084C42.542 18.2061 41.8615 18.5229 41.9184 18.94C41.9638 19.2643 42.5495 19.8179 43.2427 19.8179C43.3013 19.8179 43.3604 19.8141 43.42 19.8057C43.8827 19.7416 44.2222 19.4477 44.3836 19.2784C44.629 19.0202 44.7713 18.7325 44.7452 18.5454" fill="white"/>
<path d="M56.6247 36.695C56.367 35.9157 55.5375 35.665 54.1593 35.9495C50.0672 36.7941 48.6018 36.2091 48.1206 35.8547C51.3013 31.0093 53.9179 25.152 55.3295 19.6872C55.9981 17.0986 56.3675 14.6945 56.3977 12.735C56.4311 10.5843 56.0647 9.00384 55.3093 8.03838C52.2634 4.14634 47.7929 2.05861 42.3816 2.00134C38.6613 1.95952 35.5181 2.91156 34.9088 3.17929C33.6256 2.8602 32.2268 2.66429 30.7038 2.63929C27.9111 2.59406 25.497 3.2627 23.4984 4.62565C22.6302 4.30247 20.3865 3.53224 17.6427 3.0902C12.899 2.32656 9.1295 2.9052 6.4395 4.81088C3.22973 7.08497 1.74791 11.15 2.03496 16.8927C2.13155 18.8247 3.23246 24.7684 4.96973 30.4604C7.25655 37.9522 9.74246 42.1934 12.3579 43.0659C12.664 43.1679 13.017 43.2393 13.4063 43.2393C14.3604 43.2393 15.5302 42.8093 16.7472 41.3461C18.2317 39.5653 19.7672 37.8278 21.352 36.1357C22.3802 36.6875 23.5097 36.9957 24.665 37.0266C24.6672 37.0568 24.6702 37.087 24.6729 37.117C24.4741 37.3542 24.2793 37.5947 24.0888 37.8386C23.2884 38.8547 23.1218 39.0663 20.5452 39.5968C19.8122 39.7482 17.8656 40.1493 17.837 41.5138C17.8061 43.0047 20.1381 43.6309 20.4038 43.6972C21.3297 43.9291 22.2218 44.0434 23.0725 44.0434C25.1413 44.0434 26.962 43.3634 28.417 42.0477C28.3722 47.3627 28.5938 52.6 29.232 54.1957C29.7547 55.502 31.0316 58.6945 35.0647 58.6943C35.6566 58.6943 36.3079 58.6254 37.0245 58.4718C41.2338 57.5695 43.0618 55.7091 43.7688 51.6075C44.1472 49.4154 44.7966 44.1811 45.102 41.3734C45.7466 41.5745 46.5763 41.6666 47.4734 41.6663C49.3443 41.6663 51.5031 41.2688 52.857 40.6404C54.3779 39.9341 57.1225 38.2009 56.6247 36.695V36.695ZM46.6006 17.7222C46.5868 18.5511 46.4727 19.3036 46.3518 20.0891C46.2215 20.9338 46.087 21.8072 46.0531 22.8675C46.0197 23.8993 46.1486 24.972 46.2731 26.0095C46.525 28.105 46.7834 30.2622 45.7831 32.3909C45.617 32.0965 45.469 31.7922 45.34 31.4797C45.2156 31.1784 44.9456 30.6943 44.5718 30.0243C43.1175 27.4161 39.7118 21.3084 41.4552 18.8161C41.9745 18.0743 43.2925 17.3116 46.6006 17.7222V17.7222ZM42.5906 3.67974C47.4393 3.78679 51.2747 5.60065 53.9902 9.07065C56.0729 11.7322 53.7795 23.8429 47.1402 34.2909C47.0734 34.206 47.0063 34.1214 46.9388 34.037L46.8547 33.932C48.5704 31.0986 48.235 28.2952 47.9363 25.8097C47.8136 24.7897 47.6977 23.8263 47.7272 22.9213C47.7577 21.9622 47.8845 21.1395 48.0072 20.3441C48.1579 19.3638 48.3113 18.3495 48.2691 17.1538C48.3006 17.0284 48.3134 16.8802 48.2968 16.7043C48.1888 15.5577 46.8797 12.1261 44.2116 9.0202C42.752 7.32134 40.6236 5.4202 37.7175 4.13793C38.9675 3.87884 40.6768 3.63724 42.5906 3.67974V3.67974ZM15.4593 40.2752C14.1184 41.8875 13.1925 41.5784 12.8879 41.477C10.9038 40.8152 8.60155 36.6216 6.57178 29.9716C4.81541 24.2175 3.78905 18.4313 3.70768 16.8088C3.45132 11.6775 4.69519 8.10134 7.40496 6.17952C11.815 3.05224 19.0654 4.92406 21.9788 5.87338C21.937 5.91474 21.8934 5.95338 21.852 5.99543C17.0711 10.8236 17.1845 19.0727 17.1963 19.577C17.1959 19.7716 17.2122 20.047 17.2345 20.4259C17.3168 21.8134 17.47 24.3957 17.0609 27.32C16.6809 30.0375 17.5186 32.6972 19.3588 34.6175C19.5477 34.8142 19.7462 35.0014 19.9536 35.1784C19.1345 36.0557 17.3543 37.9957 15.4593 40.2752V40.2752ZM20.5681 33.4586C19.085 31.9109 18.4113 29.7582 18.7197 27.5518C19.1515 24.4627 18.9922 21.7722 18.9065 20.3268C18.8945 20.1245 18.8838 19.9472 18.8777 19.8075C19.5761 19.1882 22.8127 17.4541 25.1209 17.9829C26.174 18.2241 26.8159 18.9413 27.0827 20.175C28.4636 26.562 27.2654 29.2241 26.3027 31.3634C26.1043 31.8041 25.9168 32.2207 25.7568 32.6516L25.6327 32.9847C25.3186 33.827 25.0263 34.6102 24.8452 35.3538C23.2684 35.3493 21.7345 34.6757 20.5681 33.4584V33.4586ZM20.8102 42.0722C20.3497 41.9572 19.9356 41.7575 19.6927 41.5918C19.8956 41.4963 20.2568 41.3663 20.8831 41.2372C23.9143 40.6134 24.3825 40.1729 25.4047 38.875C25.639 38.5772 25.9047 38.24 26.2727 37.8291L26.2731 37.8286C26.8211 37.215 27.0718 37.3191 27.5263 37.5077C27.8947 37.66 28.2536 38.1218 28.399 38.63C28.4679 38.87 28.5452 39.3254 28.2922 39.68C26.1568 42.67 23.045 42.6316 20.8102 42.0722V42.0722ZM36.6736 56.8341C32.9654 57.6286 31.6525 55.7366 30.7872 53.5736C30.2288 52.1772 29.9543 45.8804 30.1491 38.9266C30.1516 38.8341 30.1384 38.7447 30.1129 38.6607C30.0901 38.4946 30.0555 38.3304 30.0093 38.1693C29.7197 37.1575 29.014 36.3111 28.1675 35.9602C27.8311 35.8209 27.2138 35.5652 26.472 35.755C26.6302 35.1032 26.9045 34.367 27.202 33.57L27.3268 33.2347C27.4672 32.8568 27.6436 32.4652 27.83 32.0507C28.8375 29.8125 30.2172 26.7468 28.7197 19.8211C28.1588 17.227 26.2856 15.9602 23.4461 16.2545C21.7438 16.4307 20.1863 17.1175 19.4095 17.5113C19.2425 17.5959 19.0897 17.6777 18.947 17.7572C19.1638 15.1436 19.9829 10.2591 23.047 7.16861C24.9763 5.22315 27.5456 4.26224 30.6761 4.31406C36.8443 4.41497 40.7997 7.58043 43.032 10.2184C44.9556 12.4913 45.9972 14.7811 46.4129 16.0161C43.2868 15.6982 41.1606 16.3152 40.0829 17.8561C37.7381 21.2079 41.3656 27.7134 43.109 30.84C43.4288 31.4129 43.7047 31.9082 43.7915 32.1186C44.3593 33.4945 45.0943 34.4132 45.6309 35.0836C45.7954 35.2891 45.955 35.4884 46.0763 35.6625C45.1295 35.9354 43.4288 36.5661 43.5838 39.7186C43.4588 41.3004 42.57 48.7063 42.1184 51.3229C41.5222 54.7797 40.2502 56.0672 36.6736 56.8343V56.8341ZM52.1518 39.1213C51.1836 39.5707 49.5634 39.9077 48.0243 39.9802C46.3243 40.0597 45.4588 39.7897 45.2552 39.6236C45.1597 37.6591 45.8909 37.4538 46.6647 37.2366C46.7863 37.2025 46.905 37.1691 47.0195 37.1291C47.0906 37.187 47.1686 37.2445 47.254 37.3009C48.6204 38.2027 51.0575 38.3 54.4981 37.5897L54.5359 37.5822C54.0718 38.0161 53.2777 38.5984 52.1518 39.1213Z" fill="#7C7C7F"/>
</g>
<defs>
<clipPath id="clip0_3805_9097">
<rect width="58.19" height="60" fill="white"/>
</clipPath>
</defs>
</svg>
