<svg width="94" height="37" viewBox="0 0 94 37" fill="none" xmlns="http://www.w3.org/2000/svg">
<path d="M40 18.4815C40 15.8315 36.6817 13.3198 31.5933 11.7632C32.7683 6.57817 32.2467 2.4515 29.9467 1.12984C29.3894 0.817705 28.7586 0.660591 28.12 0.674837V2.4915C28.495 2.4915 28.7967 2.5665 29.05 2.70484C30.1583 3.3415 30.64 5.7615 30.265 8.8765C30.175 9.64317 30.0283 10.4498 29.8483 11.2732C28.1444 10.8626 26.415 10.5658 24.6717 10.3848C23.6331 8.95199 22.5 7.59007 21.28 6.30817C23.9383 3.83817 26.4333 2.48484 28.13 2.48484V0.666504C25.8867 0.666504 22.9517 2.26484 19.9833 5.0365C17.0167 2.28317 14.08 0.699837 11.8383 0.699837V2.5165C13.5267 2.5165 16.03 3.86317 18.6883 6.3165C17.5467 7.5165 16.405 8.8765 15.32 10.3848C13.5731 10.5638 11.8406 10.8634 10.135 11.2815C9.94667 10.4665 9.80833 9.6765 9.71 8.91817C9.32667 5.8015 9.8 3.3815 10.9017 2.73817C11.145 2.5915 11.4633 2.52484 11.8383 2.52484V0.708171C11.155 0.708171 10.5333 0.854837 9.99667 1.16317C7.705 2.48484 7.19167 6.6015 8.37333 11.7715C3.30167 13.3382 0 15.8398 0 18.4815C0 21.1315 3.31833 23.6432 8.40667 25.1982C7.23167 30.3848 7.75333 34.5115 10.0533 35.8315C10.5833 36.1415 11.2033 36.2882 11.8867 36.2882C14.13 36.2882 17.065 34.6898 20.0333 31.9182C23 34.6732 25.935 36.2548 28.1783 36.2548C28.8218 36.2684 29.4574 36.1108 30.02 35.7982C32.3117 34.4782 32.825 30.3615 31.6433 25.1915C36.6983 23.6348 40 21.1232 40 18.4815ZM29.3833 13.0432C29.0666 14.1329 28.6996 15.2074 28.2833 16.2632C27.6019 14.9378 26.8538 13.6478 26.0417 12.3982C27.2 12.5698 28.3167 12.7815 29.385 13.0432H29.3833ZM25.65 21.7265C25.015 22.8265 24.3617 23.8715 23.685 24.8415C21.2388 25.0571 18.7784 25.0599 16.3317 24.8498C14.9282 22.8451 13.7009 20.7228 12.6633 18.5065C13.6993 16.285 14.9214 14.1552 16.3167 12.1398C18.7623 11.9238 21.2221 11.9204 23.6683 12.1298C24.345 13.0998 25.0067 14.1365 25.6417 15.2298C26.2617 16.2965 26.825 17.3798 27.3383 18.4732C26.8193 19.5798 26.2561 20.6651 25.65 21.7265V21.7265ZM28.2833 20.6665C28.7233 21.7582 29.1 22.8515 29.4083 23.9115C28.3417 24.1732 27.215 24.3932 26.05 24.5632C26.8587 23.3022 27.6041 22.0017 28.2833 20.6665V20.6665ZM20.0167 29.3665C19.2583 28.5832 18.5 27.7115 17.75 26.7565C18.4833 26.7898 19.2333 26.8148 19.9917 26.8148C20.7583 26.8148 21.5167 26.7982 22.2583 26.7565C21.525 27.7115 20.7667 28.5832 20.0167 29.3665ZM13.95 24.5632C12.8262 24.4003 11.7106 24.1857 10.6067 23.9198C10.9083 22.8682 11.2833 21.7832 11.7067 20.6998C12.0417 21.3498 12.3933 22.0032 12.7767 22.6565C13.16 23.3082 13.55 23.9448 13.95 24.5632ZM19.975 7.5965C20.7333 8.37984 21.4917 9.2515 22.2417 10.2065C21.5083 10.1732 20.7583 10.1482 20 10.1482C19.2333 10.1482 18.475 10.1648 17.7333 10.2065C18.4667 9.2515 19.225 8.37984 19.975 7.5965ZM13.9417 12.3998C13.1331 13.6581 12.3877 14.9558 11.7083 16.2882C11.2804 15.2256 10.9049 14.1426 10.5833 13.0432C11.65 12.7898 12.7767 12.5698 13.9417 12.3998ZM6.56333 22.6065C3.67667 21.3765 1.81 19.7615 1.81 18.4815C1.81 17.2015 3.67667 15.5782 6.56333 14.3565C7.26333 14.0548 8.03 13.7848 8.82167 13.5332C9.28667 15.1298 9.89833 16.7932 10.655 18.4982C9.94061 20.1018 9.33643 21.7523 8.84667 23.4382C8.07242 23.1984 7.31039 22.9209 6.56333 22.6065V22.6065ZM10.95 34.2565C9.84167 33.6232 9.36 31.1998 9.735 28.0865C9.825 27.3198 9.97167 26.5115 10.1517 25.6882C11.7483 26.0798 13.4933 26.3815 15.3283 26.5782C16.367 28.011 17.5 29.3729 18.72 30.6548C16.0617 33.1248 13.5667 34.4782 11.87 34.4782C11.5499 34.4817 11.2339 34.4061 10.95 34.2582V34.2565ZM30.29 28.0448C30.6733 31.1598 30.2 33.5815 29.0983 34.2248C28.855 34.3715 28.5367 34.4365 28.1617 34.4365C26.4733 34.4365 23.97 33.0915 21.3117 30.6365C22.4533 29.4398 23.595 28.0782 24.68 26.5698C26.4269 26.3909 28.1594 26.0913 29.865 25.6732C30.0533 26.4965 30.1983 27.2865 30.29 28.0448V28.0448ZM33.4283 22.6065C32.7283 22.9082 31.9617 23.1782 31.17 23.4298C30.6716 21.7354 30.0591 20.0766 29.3367 18.4648C30.0867 16.7698 30.6883 15.1148 31.145 13.5248C31.9533 13.7765 32.7183 14.0548 33.4367 14.3565C36.3233 15.5865 38.19 17.2015 38.19 18.4815C38.1817 19.7615 36.315 21.3848 33.4283 22.6065V22.6065Z" fill="#7C7C7F"/>
<path d="M19.9918 22.2082C20.9802 22.2082 21.9281 21.8156 22.627 21.1167C23.3258 20.4178 23.7185 19.4699 23.7185 18.4815C23.7185 17.4932 23.3258 16.5453 22.627 15.8464C21.9281 15.1475 20.9802 14.7549 19.9918 14.7549C19.0034 14.7549 18.0555 15.1475 17.3567 15.8464C16.6578 16.5453 16.2651 17.4932 16.2651 18.4815C16.2651 19.4699 16.6578 20.4178 17.3567 21.1167C18.0555 21.8156 19.0034 22.2082 19.9918 22.2082V22.2082Z" fill="#7C7C7F"/>
<path d="M56.435 24L54.125 19.92H53.135V24H51.035V13.53H54.965C55.775 13.53 56.465 13.675 57.035 13.965C57.605 14.245 58.03 14.63 58.31 15.12C58.6 15.6 58.745 16.14 58.745 16.74C58.745 17.43 58.545 18.055 58.145 18.615C57.745 19.165 57.15 19.545 56.36 19.755L58.865 24H56.435ZM53.135 18.345H54.89C55.46 18.345 55.885 18.21 56.165 17.94C56.445 17.66 56.585 17.275 56.585 16.785C56.585 16.305 56.445 15.935 56.165 15.675C55.885 15.405 55.46 15.27 54.89 15.27H53.135V18.345ZM68.3694 19.665C68.3694 19.965 68.3494 20.235 68.3094 20.475H62.2344C62.2844 21.075 62.4944 21.545 62.8644 21.885C63.2344 22.225 63.6894 22.395 64.2294 22.395C65.0094 22.395 65.5644 22.06 65.8944 21.39H68.1594C67.9194 22.19 67.4594 22.85 66.7794 23.37C66.0994 23.88 65.2644 24.135 64.2744 24.135C63.4744 24.135 62.7544 23.96 62.1144 23.61C61.4844 23.25 60.9894 22.745 60.6294 22.095C60.2794 21.445 60.1044 20.695 60.1044 19.845C60.1044 18.985 60.2794 18.23 60.6294 17.58C60.9794 16.93 61.4694 16.43 62.0994 16.08C62.7294 15.73 63.4544 15.555 64.2744 15.555C65.0644 15.555 65.7694 15.725 66.3894 16.065C67.0194 16.405 67.5044 16.89 67.8444 17.52C68.1944 18.14 68.3694 18.855 68.3694 19.665ZM66.1944 19.065C66.1844 18.525 65.9894 18.095 65.6094 17.775C65.2294 17.445 64.7644 17.28 64.2144 17.28C63.6944 17.28 63.2544 17.44 62.8944 17.76C62.5444 18.07 62.3294 18.505 62.2494 19.065H66.1944ZM69.3622 19.815C69.3622 18.975 69.5272 18.23 69.8572 17.58C70.1972 16.93 70.6522 16.43 71.2222 16.08C71.8022 15.73 72.4472 15.555 73.1572 15.555C73.7772 15.555 74.3172 15.68 74.7772 15.93C75.2472 16.18 75.6222 16.495 75.9022 16.875V15.69H78.0172V24H75.9022V22.785C75.6322 23.175 75.2572 23.5 74.7772 23.76C74.3072 24.01 73.7622 24.135 73.1422 24.135C72.4422 24.135 71.8022 23.955 71.2222 23.595C70.6522 23.235 70.1972 22.73 69.8572 22.08C69.5272 21.42 69.3622 20.665 69.3622 19.815ZM75.9022 19.845C75.9022 19.335 75.8022 18.9 75.6022 18.54C75.4022 18.17 75.1322 17.89 74.7922 17.7C74.4522 17.5 74.0872 17.4 73.6972 17.4C73.3072 17.4 72.9472 17.495 72.6172 17.685C72.2872 17.875 72.0172 18.155 71.8072 18.525C71.6072 18.885 71.5072 19.315 71.5072 19.815C71.5072 20.315 71.6072 20.755 71.8072 21.135C72.0172 21.505 72.2872 21.79 72.6172 21.99C72.9572 22.19 73.3172 22.29 73.6972 22.29C74.0872 22.29 74.4522 22.195 74.7922 22.005C75.1322 21.805 75.4022 21.525 75.6022 21.165C75.8022 20.795 75.9022 20.355 75.9022 19.845ZM79.5282 19.845C79.5282 18.985 79.7032 18.235 80.0532 17.595C80.4032 16.945 80.8882 16.445 81.5082 16.095C82.1282 15.735 82.8382 15.555 83.6382 15.555C84.6682 15.555 85.5182 15.815 86.1882 16.335C86.8682 16.845 87.3232 17.565 87.5532 18.495H85.2882C85.1682 18.135 84.9632 17.855 84.6732 17.655C84.3932 17.445 84.0432 17.34 83.6232 17.34C83.0232 17.34 82.5482 17.56 82.1982 18C81.8482 18.43 81.6732 19.045 81.6732 19.845C81.6732 20.635 81.8482 21.25 82.1982 21.69C82.5482 22.12 83.0232 22.335 83.6232 22.335C84.4732 22.335 85.0282 21.955 85.2882 21.195H87.5532C87.3232 22.095 86.8682 22.81 86.1882 23.34C85.5082 23.87 84.6582 24.135 83.6382 24.135C82.8382 24.135 82.1282 23.96 81.5082 23.61C80.8882 23.25 80.4032 22.75 80.0532 22.11C79.7032 21.46 79.5282 20.705 79.5282 19.845ZM91.5366 17.415V21.435C91.5366 21.715 91.6016 21.92 91.7316 22.05C91.8716 22.17 92.1016 22.23 92.4216 22.23H93.3966V24H92.0766C90.3066 24 89.4216 23.14 89.4216 21.42V17.415H88.4316V15.69H89.4216V13.635H91.5366V15.69H93.3966V17.415H91.5366Z" fill="#7C7C7F"/>
</svg>
