<svg width="120" height="38" viewBox="0 0 120 38" fill="none" xmlns="http://www.w3.org/2000/svg">
<g filter="url(#filter0_d_3815_9069)">
<path d="M41 18.4815C41 15.8315 37.6817 13.3198 32.5933 11.7632C33.7683 6.57817 33.2467 2.4515 30.9467 1.12984C30.3894 0.817705 29.7586 0.660591 29.12 0.674837V2.4915C29.495 2.4915 29.7967 2.5665 30.05 2.70484C31.1583 3.3415 31.64 5.7615 31.265 8.8765C31.175 9.64317 31.0283 10.4498 30.8483 11.2732C29.1444 10.8626 27.415 10.5658 25.6717 10.3848C24.6331 8.95199 23.5 7.59007 22.28 6.30817C24.9383 3.83817 27.4333 2.48484 29.13 2.48484V0.666504C26.8867 0.666504 23.9517 2.26484 20.9833 5.0365C18.0167 2.28317 15.08 0.699837 12.8383 0.699837V2.5165C14.5267 2.5165 17.03 3.86317 19.6883 6.3165C18.5467 7.5165 17.405 8.8765 16.32 10.3848C14.5731 10.5638 12.8406 10.8634 11.135 11.2815C10.9467 10.4665 10.8083 9.6765 10.71 8.91817C10.3267 5.8015 10.8 3.3815 11.9017 2.73817C12.145 2.5915 12.4633 2.52484 12.8383 2.52484V0.708171C12.155 0.708171 11.5333 0.854837 10.9967 1.16317C8.705 2.48484 8.19167 6.6015 9.37333 11.7715C4.30167 13.3382 1 15.8398 1 18.4815C1 21.1315 4.31833 23.6432 9.40667 25.1982C8.23167 30.3848 8.75333 34.5115 11.0533 35.8315C11.5833 36.1415 12.2033 36.2882 12.8867 36.2882C15.13 36.2882 18.065 34.6898 21.0333 31.9182C24 34.6732 26.935 36.2548 29.1783 36.2548C29.8218 36.2684 30.4574 36.1108 31.02 35.7982C33.3117 34.4782 33.825 30.3615 32.6433 25.1915C37.6983 23.6348 41 21.1232 41 18.4815ZM30.3833 13.0432C30.0666 14.1329 29.6996 15.2074 29.2833 16.2632C28.6019 14.9378 27.8538 13.6478 27.0417 12.3982C28.2 12.5698 29.3167 12.7815 30.385 13.0432H30.3833ZM26.65 21.7265C26.015 22.8265 25.3617 23.8715 24.685 24.8415C22.2388 25.0571 19.7784 25.0599 17.3317 24.8498C15.9282 22.8451 14.7009 20.7228 13.6633 18.5065C14.6993 16.285 15.9214 14.1552 17.3167 12.1398C19.7623 11.9238 22.2221 11.9204 24.6683 12.1298C25.345 13.0998 26.0067 14.1365 26.6417 15.2298C27.2617 16.2965 27.825 17.3798 28.3383 18.4732C27.8193 19.5798 27.2561 20.6651 26.65 21.7265V21.7265ZM29.2833 20.6665C29.7233 21.7582 30.1 22.8515 30.4083 23.9115C29.3417 24.1732 28.215 24.3932 27.05 24.5632C27.8587 23.3022 28.6041 22.0017 29.2833 20.6665V20.6665ZM21.0167 29.3665C20.2583 28.5832 19.5 27.7115 18.75 26.7565C19.4833 26.7898 20.2333 26.8148 20.9917 26.8148C21.7583 26.8148 22.5167 26.7982 23.2583 26.7565C22.525 27.7115 21.7667 28.5832 21.0167 29.3665ZM14.95 24.5632C13.8262 24.4003 12.7106 24.1857 11.6067 23.9198C11.9083 22.8682 12.2833 21.7832 12.7067 20.6998C13.0417 21.3498 13.3933 22.0032 13.7767 22.6565C14.16 23.3082 14.55 23.9448 14.95 24.5632ZM20.975 7.5965C21.7333 8.37984 22.4917 9.2515 23.2417 10.2065C22.5083 10.1732 21.7583 10.1482 21 10.1482C20.2333 10.1482 19.475 10.1648 18.7333 10.2065C19.4667 9.2515 20.225 8.37984 20.975 7.5965ZM14.9417 12.3998C14.1331 13.6581 13.3877 14.9558 12.7083 16.2882C12.2804 15.2256 11.9049 14.1426 11.5833 13.0432C12.65 12.7898 13.7767 12.5698 14.9417 12.3998ZM7.56333 22.6065C4.67667 21.3765 2.81 19.7615 2.81 18.4815C2.81 17.2015 4.67667 15.5782 7.56333 14.3565C8.26333 14.0548 9.03 13.7848 9.82167 13.5332C10.2867 15.1298 10.8983 16.7932 11.655 18.4982C10.9406 20.1018 10.3364 21.7523 9.84667 23.4382C9.07242 23.1984 8.31039 22.9209 7.56333 22.6065V22.6065ZM11.95 34.2565C10.8417 33.6232 10.36 31.1998 10.735 28.0865C10.825 27.3198 10.9717 26.5115 11.1517 25.6882C12.7483 26.0798 14.4933 26.3815 16.3283 26.5782C17.367 28.011 18.5 29.3729 19.72 30.6548C17.0617 33.1248 14.5667 34.4782 12.87 34.4782C12.5499 34.4817 12.2339 34.4061 11.95 34.2582V34.2565ZM31.29 28.0448C31.6733 31.1598 31.2 33.5815 30.0983 34.2248C29.855 34.3715 29.5367 34.4365 29.1617 34.4365C27.4733 34.4365 24.97 33.0915 22.3117 30.6365C23.4533 29.4398 24.595 28.0782 25.68 26.5698C27.4269 26.3909 29.1594 26.0913 30.865 25.6732C31.0533 26.4965 31.1983 27.2865 31.29 28.0448V28.0448ZM34.4283 22.6065C33.7283 22.9082 32.9617 23.1782 32.17 23.4298C31.6716 21.7354 31.0591 20.0766 30.3367 18.4648C31.0867 16.7698 31.6883 15.1148 32.145 13.5248C32.9533 13.7765 33.7183 14.0548 34.4367 14.3565C37.3233 15.5865 39.19 17.2015 39.19 18.4815C39.1817 19.7615 37.315 21.3848 34.4283 22.6065V22.6065Z" fill="url(#paint0_linear_3815_9069)"/>
<path d="M20.9918 22.2082C21.9802 22.2082 22.9281 21.8156 23.627 21.1167C24.3258 20.4178 24.7185 19.4699 24.7185 18.4815C24.7185 17.4932 24.3258 16.5453 23.627 15.8464C22.9281 15.1475 21.9802 14.7549 20.9918 14.7549C20.0034 14.7549 19.0555 15.1475 18.3567 15.8464C17.6578 16.5453 17.2651 17.4932 17.2651 18.4815C17.2651 19.4699 17.6578 20.4178 18.3567 21.1167C19.0555 21.8156 20.0034 22.2082 20.9918 22.2082V22.2082Z" fill="url(#paint1_linear_3815_9069)"/>
<path d="M56.992 24L54.004 18.87H52.024V24H50.386V11.454H54.436C55.384 11.454 56.182 11.616 56.83 11.94C57.49 12.264 57.982 12.702 58.306 13.254C58.63 13.806 58.792 14.436 58.792 15.144C58.792 16.008 58.54 16.77 58.036 17.43C57.544 18.09 56.8 18.528 55.804 18.744L58.954 24H56.992ZM52.024 17.556H54.436C55.324 17.556 55.99 17.34 56.434 16.908C56.878 16.464 57.1 15.876 57.1 15.144C57.1 14.4 56.878 13.824 56.434 13.416C56.002 13.008 55.336 12.804 54.436 12.804H52.024V17.556ZM70.3372 18.69C70.3372 19.002 70.3192 19.332 70.2832 19.68H62.3992C62.4592 20.652 62.7892 21.414 63.3892 21.966C64.0012 22.506 64.7392 22.776 65.6032 22.776C66.3112 22.776 66.8992 22.614 67.3672 22.29C67.8472 21.954 68.1832 21.51 68.3752 20.958H70.1392C69.8752 21.906 69.3472 22.68 68.5552 23.28C67.7632 23.868 66.7792 24.162 65.6032 24.162C64.6672 24.162 63.8272 23.952 63.0832 23.532C62.3512 23.112 61.7752 22.518 61.3552 21.75C60.9352 20.97 60.7252 20.07 60.7252 19.05C60.7252 18.03 60.9292 17.136 61.3372 16.368C61.7452 15.6 62.3152 15.012 63.0472 14.604C63.7912 14.184 64.6432 13.974 65.6032 13.974C66.5392 13.974 67.3672 14.178 68.0872 14.586C68.8072 14.994 69.3592 15.558 69.7432 16.278C70.1392 16.986 70.3372 17.79 70.3372 18.69ZM68.6452 18.348C68.6452 17.724 68.5072 17.19 68.2312 16.746C67.9552 16.29 67.5772 15.948 67.0972 15.72C66.6292 15.48 66.1072 15.36 65.5312 15.36C64.7032 15.36 63.9952 15.624 63.4072 16.152C62.8312 16.68 62.5012 17.412 62.4172 18.348H68.6452ZM71.8873 19.032C71.8873 18.024 72.0913 17.142 72.4993 16.386C72.9073 15.618 73.4653 15.024 74.1733 14.604C74.8933 14.184 75.6913 13.974 76.5673 13.974C77.4313 13.974 78.1813 14.16 78.8173 14.532C79.4533 14.904 79.9273 15.372 80.2393 15.936V14.136H81.8953V24H80.2393V22.164C79.9153 22.74 79.4293 23.22 78.7813 23.604C78.1453 23.976 77.4013 24.162 76.5493 24.162C75.6733 24.162 74.8813 23.946 74.1733 23.514C73.4653 23.082 72.9073 22.476 72.4993 21.696C72.0913 20.916 71.8873 20.028 71.8873 19.032ZM80.2393 19.05C80.2393 18.306 80.0893 17.658 79.7893 17.106C79.4893 16.554 79.0813 16.134 78.5653 15.846C78.0613 15.546 77.5033 15.396 76.8913 15.396C76.2793 15.396 75.7213 15.54 75.2173 15.828C74.7133 16.116 74.3113 16.536 74.0113 17.088C73.7113 17.64 73.5613 18.288 73.5613 19.032C73.5613 19.788 73.7113 20.448 74.0113 21.012C74.3113 21.564 74.7133 21.99 75.2173 22.29C75.7213 22.578 76.2793 22.722 76.8913 22.722C77.5033 22.722 78.0613 22.578 78.5653 22.29C79.0813 21.99 79.4893 21.564 79.7893 21.012C80.0893 20.448 80.2393 19.794 80.2393 19.05ZM84.0513 19.05C84.0513 18.03 84.2553 17.142 84.6633 16.386C85.0713 15.618 85.6353 15.024 86.3553 14.604C87.0873 14.184 87.9213 13.974 88.8573 13.974C90.0693 13.974 91.0653 14.268 91.8453 14.856C92.6373 15.444 93.1593 16.26 93.4113 17.304H91.6473C91.4793 16.704 91.1493 16.23 90.6573 15.882C90.1773 15.534 89.5773 15.36 88.8573 15.36C87.9213 15.36 87.1653 15.684 86.5893 16.332C86.0133 16.968 85.7253 17.874 85.7253 19.05C85.7253 20.238 86.0133 21.156 86.5893 21.804C87.1653 22.452 87.9213 22.776 88.8573 22.776C89.5773 22.776 90.1773 22.608 90.6573 22.272C91.1373 21.936 91.4673 21.456 91.6473 20.832H93.4113C93.1473 21.84 92.6193 22.65 91.8273 23.262C91.0353 23.862 90.0453 24.162 88.8573 24.162C87.9213 24.162 87.0873 23.952 86.3553 23.532C85.6353 23.112 85.0713 22.518 84.6633 21.75C84.2553 20.982 84.0513 20.082 84.0513 19.05ZM97.5949 15.486V21.3C97.5949 21.78 97.6969 22.122 97.9009 22.326C98.1049 22.518 98.4589 22.614 98.9629 22.614H100.169V24H98.6929C97.7809 24 97.0969 23.79 96.6409 23.37C96.1849 22.95 95.9569 22.26 95.9569 21.3V15.486H94.6789V14.136H95.9569V11.652H97.5949V14.136H100.169V15.486H97.5949ZM102.676 24.108C102.364 24.108 102.1 24 101.884 23.784C101.668 23.568 101.56 23.304 101.56 22.992C101.56 22.68 101.668 22.416 101.884 22.2C102.1 21.984 102.364 21.876 102.676 21.876C102.976 21.876 103.228 21.984 103.432 22.2C103.648 22.416 103.756 22.68 103.756 22.992C103.756 23.304 103.648 23.568 103.432 23.784C103.228 24 102.976 24.108 102.676 24.108ZM106.815 12.534C106.503 12.534 106.239 12.426 106.023 12.21C105.819 11.994 105.717 11.73 105.717 11.418C105.717 11.106 105.819 10.842 106.023 10.626C106.239 10.41 106.503 10.302 106.815 10.302C107.127 10.302 107.385 10.41 107.589 10.626C107.805 10.842 107.913 11.106 107.913 11.418C107.913 11.73 107.805 11.994 107.589 12.21C107.385 12.426 107.127 12.534 106.815 12.534ZM107.625 26.142C107.625 27.018 107.403 27.66 106.959 28.068C106.515 28.476 105.867 28.68 105.015 28.68H104.061V27.294H104.745C105.201 27.294 105.519 27.204 105.699 27.024C105.891 26.844 105.987 26.538 105.987 26.106V14.136H107.625V26.142ZM113.89 24.162C113.134 24.162 112.456 24.036 111.856 23.784C111.256 23.52 110.782 23.16 110.434 22.704C110.086 22.236 109.894 21.702 109.858 21.102H111.55C111.598 21.594 111.826 21.996 112.234 22.308C112.654 22.62 113.2 22.776 113.872 22.776C114.496 22.776 114.988 22.638 115.348 22.362C115.708 22.086 115.888 21.738 115.888 21.318C115.888 20.886 115.696 20.568 115.312 20.364C114.928 20.148 114.334 19.938 113.53 19.734C112.798 19.542 112.198 19.35 111.73 19.158C111.274 18.954 110.878 18.66 110.542 18.276C110.218 17.88 110.056 17.364 110.056 16.728C110.056 16.224 110.206 15.762 110.506 15.342C110.806 14.922 111.232 14.592 111.784 14.352C112.336 14.1 112.966 13.974 113.674 13.974C114.766 13.974 115.648 14.25 116.32 14.802C116.992 15.354 117.352 16.11 117.4 17.07H115.762C115.726 16.554 115.516 16.14 115.132 15.828C114.76 15.516 114.256 15.36 113.62 15.36C113.032 15.36 112.564 15.486 112.216 15.738C111.868 15.99 111.694 16.32 111.694 16.728C111.694 17.052 111.796 17.322 112 17.538C112.216 17.742 112.48 17.91 112.792 18.042C113.116 18.162 113.56 18.3 114.124 18.456C114.832 18.648 115.408 18.84 115.852 19.032C116.296 19.212 116.674 19.488 116.986 19.86C117.31 20.232 117.478 20.718 117.49 21.318C117.49 21.858 117.34 22.344 117.04 22.776C116.74 23.208 116.314 23.55 115.762 23.802C115.222 24.042 114.598 24.162 113.89 24.162Z" fill="#7C7C7F"/>
</g>
<defs>
<filter id="filter0_d_3815_9069" x="-1" y="0.666504" width="120.49" height="39.6216" filterUnits="userSpaceOnUse" color-interpolation-filters="sRGB">
<feFlood flood-opacity="0" result="BackgroundImageFix"/>
<feColorMatrix in="SourceAlpha" type="matrix" values="0 0 0 0 0 0 0 0 0 0 0 0 0 0 0 0 0 0 127 0" result="hardAlpha"/>
<feOffset dy="2"/>
<feGaussianBlur stdDeviation="1"/>
<feComposite in2="hardAlpha" operator="out"/>
<feColorMatrix type="matrix" values="0 0 0 0 0 0 0 0 0 0 0 0 0 0 0 0 0 0 0.25 0"/>
<feBlend mode="normal" in2="BackgroundImageFix" result="effect1_dropShadow_3815_9069"/>
<feBlend mode="normal" in="SourceGraphic" in2="effect1_dropShadow_3815_9069" result="shape"/>
</filter>
<linearGradient id="paint0_linear_3815_9069" x1="21" y1="0.666504" x2="21" y2="36.2882" gradientUnits="userSpaceOnUse">
<stop stop-color="#61DAFB"/>
<stop offset="1" stop-color="#7C7C7F"/>
</linearGradient>
<linearGradient id="paint1_linear_3815_9069" x1="20.9918" y1="14.7549" x2="20.9918" y2="22.2082" gradientUnits="userSpaceOnUse">
<stop stop-color="#61DAFB"/>
<stop offset="1" stop-color="white" stop-opacity="0"/>
</linearGradient>
</defs>
</svg>
