<svg width="18" height="16" viewBox="0 0 18 16" fill="none" xmlns="http://www.w3.org/2000/svg">
<path d="M16.1156 1.13632C14.0836 -0.572276 10.9441 -0.315636 9.00001 1.66366C7.05587 -0.315636 3.91641 -0.575792 1.88438 1.13632C-0.759371 3.36171 -0.372652 6.98983 1.51172 8.91288L7.67813 15.1953C8.02969 15.5539 8.50079 15.7543 9.00001 15.7543C9.50274 15.7543 9.97032 15.5574 10.3219 15.1988L16.4883 8.9164C18.3691 6.99335 18.7629 3.36522 16.1156 1.13632V1.13632ZM15.2859 7.72811L9.11954 14.0105C9.03516 14.0949 8.96485 14.0949 8.88048 14.0105L2.71407 7.72811C1.43086 6.4203 1.17071 3.9453 2.97071 2.43007C4.33829 1.28046 6.44766 1.45272 7.76954 2.79921L9.00001 4.05429L10.2305 2.79921C11.5594 1.44569 13.6688 1.28046 15.0293 2.42655C16.8258 3.94179 16.5586 6.43085 15.2859 7.72811V7.72811Z" fill="#8B8A8A"/>
</svg>
