<svg width="15" height="15" viewBox="0 0 15 15" fill="none" xmlns="http://www.w3.org/2000/svg">
<path d="M7.49899 3.68208C5.37071 3.68208 3.65404 5.3854 3.65404 7.49711C3.65404 9.60883 5.37071 11.3121 7.49899 11.3121C9.62726 11.3121 11.3439 9.60883 11.3439 7.49711C11.3439 5.3854 9.62726 3.68208 7.49899 3.68208ZM7.49899 9.97738C6.12364 9.97738 4.99927 8.86508 4.99927 7.49711C4.99927 6.12914 6.12029 5.01684 7.49899 5.01684C8.87768 5.01684 9.99871 6.12914 9.99871 7.49711C9.99871 8.86508 8.87434 9.97738 7.49899 9.97738V9.97738ZM12.398 3.52602C12.398 4.02075 11.9965 4.41587 11.5012 4.41587C11.0026 4.41587 10.6044 4.01743 10.6044 3.52602C10.6044 3.03462 11.006 2.63618 11.5012 2.63618C11.9965 2.63618 12.398 3.03462 12.398 3.52602ZM14.9446 4.42915C14.8877 3.23716 14.6133 2.1813 13.7332 1.31138C12.8565 0.441455 11.7924 0.169189 10.591 0.109424C9.35286 0.0396973 5.64177 0.0396973 4.40362 0.109424C3.20562 0.165869 2.14149 0.438134 1.2614 1.30806C0.381308 2.17798 0.110254 3.23383 0.0500194 4.42583C-0.0202539 5.65434 -0.0202539 9.33656 0.0500194 10.5651C0.106907 11.7571 0.381308 12.8129 1.2614 13.6828C2.14149 14.5528 3.20228 14.825 4.40362 14.8848C5.64177 14.9545 9.35286 14.9545 10.591 14.8848C11.7924 14.8284 12.8565 14.5561 13.7332 13.6828C14.61 12.8129 14.8844 11.7571 14.9446 10.5651C15.0149 9.33656 15.0149 5.65766 14.9446 4.42915V4.42915ZM13.3451 11.8832C13.084 12.534 12.5787 13.0354 11.9195 13.2977C10.9323 13.6862 8.5899 13.5965 7.49899 13.5965C6.40808 13.5965 4.06229 13.6828 3.07846 13.2977C2.42258 13.0387 1.91728 12.5373 1.65292 11.8832C1.2614 10.9037 1.35175 8.57953 1.35175 7.49711C1.35175 6.41469 1.26474 4.08715 1.65292 3.11098C1.91393 2.4602 2.41923 1.95884 3.07846 1.69653C4.06564 1.30806 6.40808 1.3977 7.49899 1.3977C8.5899 1.3977 10.9357 1.31138 11.9195 1.69653C12.5754 1.95552 13.0807 2.45688 13.3451 3.11098C13.7366 4.09047 13.6462 6.41469 13.6462 7.49711C13.6462 8.57953 13.7366 10.9071 13.3451 11.8832Z" fill="white"/>
</svg>
