<svg width="18" height="18" viewBox="0 0 18 18" fill="none" xmlns="http://www.w3.org/2000/svg">
<path d="M5.06418 7.07143C4.44199 7.07143 3.93932 7.64598 3.93932 8.35714C3.93932 9.0683 4.44199 9.64286 5.06418 9.64286C5.68636 9.64286 6.18903 9.0683 6.18903 8.35714C6.18903 7.64598 5.68636 7.07143 5.06418 7.07143ZM9.00117 7.07143C8.37898 7.07143 7.87631 7.64598 7.87631 8.35714C7.87631 9.0683 8.37898 9.64286 9.00117 9.64286C9.62335 9.64286 10.126 9.0683 10.126 8.35714C10.126 7.64598 9.62335 7.07143 9.00117 7.07143ZM12.9382 7.07143C12.316 7.07143 11.8133 7.64598 11.8133 8.35714C11.8133 9.0683 12.316 9.64286 12.9382 9.64286C13.5603 9.64286 14.063 9.0683 14.063 8.35714C14.063 7.64598 13.5603 7.07143 12.9382 7.07143ZM9.00117 0C4.03072 0 0.00233295 3.74062 0.00233295 8.35714C0.00233295 10.2696 0.701852 12.0214 1.86186 13.4317C1.3381 15.0147 0.248395 16.3567 0.230819 16.3728C-0.00118221 16.654 -0.0644553 17.0638 0.0691212 17.4174C0.202698 17.771 0.508517 18 0.845974 18C3.0078 18 4.71266 16.9674 5.73557 16.1397C6.75146 16.5054 7.84819 16.7143 9.00117 16.7143C13.9716 16.7143 18 12.9737 18 8.35714C18 3.74062 13.9716 0 9.00117 0ZM9.00117 14.7857C8.06262 14.7857 7.13461 14.621 6.24527 14.2996L5.44733 14.0103L4.76187 14.5647C4.2592 14.9705 3.57023 15.4246 2.74065 15.7299C2.99726 15.2437 3.24683 14.6973 3.44017 14.1147L3.81278 12.9857L3.08865 12.1098C2.45241 11.3344 1.68961 10.0527 1.68961 8.35714C1.68961 4.81339 4.96927 1.92857 9.00117 1.92857C13.0331 1.92857 16.3127 4.81339 16.3127 8.35714C16.3127 11.9009 13.0331 14.7857 9.00117 14.7857Z" fill="#8B8A8A"/>
</svg>
