<svg width="15" height="13" viewBox="0 0 15 13" fill="none" xmlns="http://www.w3.org/2000/svg">
<path d="M13.4581 3.03615C13.4676 3.16939 13.4676 3.30267 13.4676 3.43591C13.4676 7.49997 10.3744 12.1827 4.72081 12.1827C2.97905 12.1827 1.36104 11.6783 0 10.8027C0.247471 10.8312 0.485391 10.8407 0.742383 10.8407C2.17954 10.8407 3.50253 10.3553 4.559 9.52729C3.20748 9.49872 2.07486 8.61357 1.68463 7.39529C1.875 7.42383 2.06534 7.44287 2.26523 7.44287C2.54124 7.44287 2.81728 7.40478 3.07424 7.33819C1.66562 7.05264 0.609111 5.81534 0.609111 4.32105V4.283C1.01836 4.51143 1.49429 4.65419 1.99869 4.6732C1.17064 4.12116 0.628154 3.17892 0.628154 2.11292C0.628154 1.54187 0.78041 1.01839 1.04692 0.561533C2.56025 2.42701 4.83501 3.64526 7.38574 3.77854C7.33816 3.55011 7.3096 3.31219 7.3096 3.07424C7.3096 1.38006 8.68017 0 10.3838 0C11.269 0 12.0685 0.371191 12.63 0.970811C13.3248 0.837568 13.991 0.580576 14.5812 0.228428C14.3527 0.942275 13.8673 1.54189 13.2296 1.92258C13.8483 1.85599 14.4479 1.68463 14.9999 1.44671C14.5812 2.05582 14.0577 2.59831 13.4581 3.03615V3.03615Z" fill="white"/>
</svg>
